<?xml version="1.0" standalone="no"?>
<!DOCTYPE svg PUBLIC "-//W3C//DTD SVG 1.1//EN" "http://www.w3.org/Graphics/SVG/1.1/DTD/svg11.dtd" >
<svg xmlns="http://www.w3.org/2000/svg">
<metadata></metadata>
<defs>
<font id="AdobeGaramondProRegular" horiz-adv-x="1024" >
<font-face units-per-em="2048" ascent="1485" descent="-563" />
<missing-glyph horiz-adv-x="512" />
<glyph unicode="&#xfb01;" horiz-adv-x="1069" d="M61.5 18q-1.5 19 8.5 27l47 6q55 7 66.5 35.5t11.5 142.5v433q0 42 -5.5 50.5t-35.5 8.5h-72q-9 6 -10.5 18t4.5 21l88 43q31 15 31 41q0 198 63 344q14 34 35.5 68.5t57 73t78 67.5t101.5 48t125 19q104 0 179 -47t75 -112q0 -41 -27.5 -62.5t-56.5 -21.5q-34 0 -53 30 q-41 69 -93.5 102t-98.5 33q-234 0 -234 -493v-23q0 -40 6.5 -51.5t32.5 -11.5h229q71 0 152.5 9t116.5 22q13 0 20 -11q-8 -148 -8 -256v-342q0 -113 12 -142t66 -36l43 -6q10 -8 8.5 -27t-12.5 -24q-92 6 -193 6q-107 0 -192 -6q-11 5 -12.5 24t8.5 27l43 6q55 7 66 35 t11 143v357q0 49 -3 74t-15.5 40t-30 18t-53.5 3h-256q-25 0 -32 -12.5t-7 -51.5v-428q0 -114 12 -144t66 -34l65 -6q10 -8 8.5 -27t-12.5 -24q-126 6 -215 6q-104 0 -196 -6q-11 5 -12.5 24z" />
<glyph unicode="&#xfb02;" horiz-adv-x="1069" d="M61.5 18q-1.5 19 8.5 27l47 6q55 7 66.5 35.5t11.5 142.5v433q0 42 -5.5 50.5t-35.5 8.5h-72q-9 6 -10.5 18t4.5 21l88 43q31 15 31 41q0 110 11 193t44 163q19 46 49 89t76 84t113 66t145 25q105 0 190 -53l54 53q16 0 24 -8q-6 -135 -6 -305v-922q0 -113 12 -142 t66 -36l49 -6q10 -8 8.5 -27t-12.5 -24q-102 6 -199 6q-105 0 -196 -6q-11 5 -13 24t8 27l48 6q55 7 66 35t11 143v451q0 27 -5.5 34t-32.5 7h-320q-28 0 -33.5 -8.5t-5.5 -55.5v-428q0 -114 12 -144t66 -34l63 -6q10 -8 8.5 -27t-12.5 -24q-123 6 -213 6q-104 0 -196 -6 q-11 5 -12.5 24zM346 850q0 -30 6 -36.5t33 -6.5h320q24 0 31 7t7 34v330q0 110 -34 155q-21 26 -54 46t-71 20q-47 0 -84.5 -18.5t-62 -47t-42.5 -72.5t-27 -84t-14.5 -93t-6.5 -89t-1 -82v-63z" />
<glyph unicode="&#xfb03;" horiz-adv-x="1617" d="M61.5 18q-1.5 19 8.5 27l47 6q55 7 66.5 35.5t11.5 142.5v433q0 42 -5.5 50.5t-35.5 8.5h-72q-9 6 -10.5 18t4.5 21l88 43q31 15 31 41q0 65 16.5 152.5t52.5 164.5q51 106 145.5 180t231.5 74q86 0 148.5 -29t87.5 -63q46 57 132.5 99t194.5 42q104 0 179 -47t75 -112 q0 -41 -27.5 -62.5t-56.5 -21.5q-34 0 -53 30q-41 69 -94 102t-99 33q-119 0 -176 -123t-57 -370v-23q0 -40 6.5 -51.5t32.5 -11.5h229q71 0 152.5 9t116.5 22q13 0 20 -11q-8 -148 -8 -256v-342q0 -113 12 -142t66 -36l43 -6q10 -8 8.5 -27t-12.5 -24q-91 6 -193 6 q-106 0 -192 -6q-11 5 -13 24t8 27l43 6q55 7 66.5 35.5t11.5 142.5v357q0 92 -17 113.5t-85 21.5h-256q-25 0 -32 -12.5t-7 -51.5v-428q0 -114 12 -144t66 -34l65 -6q10 -8 8.5 -27t-12.5 -24q-126 6 -215 6q-105 0 -196 -6q-11 5 -13 24t8 27l48 6q55 7 66 35t11 143v433 q0 42 -5.5 50.5t-35.5 8.5h-321q-26 0 -30.5 -8.5t-4.5 -50.5v-433q0 -114 12 -144t66 -34l74 -6q10 -8 8.5 -27t-12.5 -24q-138 6 -224 6q-104 0 -196 -6q-11 5 -12.5 24zM346 864q0 -42 8 -49.5t52 -7.5h307q12 0 21 11t9 26q0 181 54 352q-15 55 -72 101t-133 46 q-54 0 -95.5 -19t-67.5 -55.5t-43.5 -78.5t-25.5 -99.5t-11 -106t-3 -110.5v-10z" />
<glyph unicode="&#xfb04;" horiz-adv-x="1615" d="M61.5 18q-1.5 19 8.5 27l47 6q55 7 66.5 35.5t11.5 142.5v433q0 42 -5.5 50.5t-35.5 8.5h-72q-9 6 -10.5 18t4.5 21l88 43q31 15 31 41q0 65 16.5 152.5t52.5 164.5q51 106 145.5 180t231.5 74q151 0 231 -90q42 54 125 96.5t177 42.5q113 0 198 -53l53 53q17 0 25 -8 q-6 -135 -6 -305v-922q0 -113 12 -142t66 -36l47 -6q10 -8 8.5 -27t-12.5 -24q-99 6 -197 6q-106 0 -192 -6q-11 5 -13 24t8 27l43 6q55 7 66.5 35.5t11.5 142.5v451q0 27 -6 34t-33 7h-319q-28 0 -33.5 -8.5t-5.5 -55.5v-428q0 -114 12 -144t66 -34l65 -6q10 -8 8.5 -27 t-12.5 -24q-126 6 -215 6q-105 0 -196 -6q-11 5 -13 24t8 27l48 6q55 7 66 35t11 143v433q0 42 -5.5 50.5t-35.5 8.5h-321q-26 0 -30.5 -8.5t-4.5 -50.5v-433q0 -114 12 -144t66 -34l74 -6q10 -8 8.5 -27t-12.5 -24q-138 6 -224 6q-104 0 -196 -6q-11 5 -12.5 24zM346 864 q0 -42 8 -49.5t52 -7.5h307q12 0 21 11t9 26q0 177 52 354q-15 54 -71 99.5t-132 45.5q-54 0 -95.5 -19t-67.5 -55.5t-43.5 -78.5t-25.5 -99.5t-11 -106t-3 -110.5v-10zM895 850q0 -30 6 -36.5t33 -6.5h319q24 0 31.5 7t7.5 34v330q0 109 -35 155q-51 66 -124 66 q-47 0 -84.5 -18.5t-62 -47t-42.5 -72.5t-27 -84t-14.5 -93t-6.5 -89t-1 -82v-63z" />
<glyph horiz-adv-x="0" />
<glyph horiz-adv-x="2048" />
<glyph unicode=" "  horiz-adv-x="512" />
<glyph unicode="&#x09;" horiz-adv-x="512" />
<glyph unicode="&#xa0;" horiz-adv-x="512" />
<glyph unicode="!" horiz-adv-x="450" d="M111 84q0 53 32.5 87t81.5 34q51 0 83 -35t32 -86q0 -50 -31.5 -81.5t-83.5 -31.5q-46 0 -80 31t-34 82zM125 1264q0 36 23 47.5t77 11.5t77.5 -11.5t23.5 -47.5q0 -20 -15 -183l-59 -661q-9 -9 -27.5 -9t-25.5 9l-60 661q-14 153 -14 183z" />
<glyph unicode="&#x22;" horiz-adv-x="827" d="M162 1384q0 31 20 40.5t68 9.5t68 -9.5t20 -40.5q0 -7 -10 -79l-54 -330q-24 -25 -49 0l-53 330q-10 72 -10 79zM489 1384q0 31 20.5 40.5t68.5 9.5t68 -9.5t20 -40.5l-11 -79l-53 -330q-24 -25 -49 0l-53 330z" />
<glyph unicode="#" d="M18 391l31 103h223l88 331h-229l33 103h223l92 350h88l-94 -350h238l92 350h90l-94 -350h207l-27 -103h-209l-90 -331h203l-31 -103h-201l-104 -385h-80l102 385h-243l-105 -385h-78l103 385h-228zM354 494h242l88 331h-240z" />
<glyph unicode="$" d="M113 338q7 10 20.5 13t24.5 -7q12 -39 30 -75.5t48.5 -79t79.5 -74.5t110 -45l68 546l-78 39q-98 49 -164 135t-66 193q0 139 104.5 231.5t287.5 96.5l18 157q8 10 34.5 10t35.5 -10l-21 -159q72 -2 205 -31q14 -36 28 -106.5t15 -124.5q-5 -11 -20.5 -13.5t-24.5 6.5 q-12 28 -18.5 42.5t-25 45.5t-38.5 49.5t-53.5 38.5t-73.5 29l-61 -495l86 -45q245 -129 245 -351q0 -156 -115 -255t-309 -99l-22 -193q-12 -9 -34.5 -9t-33.5 9l25 197q-152 9 -250 66q-25 29 -41 104t-16 164zM324 1030q0 -142 190 -246l55 467q-74 -1 -125.5 -22 t-76 -56.5t-34 -69.5t-9.5 -73zM494 63q53 -1 99.5 11t84.5 37.5t60 70t22 103.5q0 40 -6.5 73t-26 73t-62.5 79t-108 74z" />
<glyph unicode="%" horiz-adv-x="1728" d="M92 913q0 65 18.5 132t55 128t99 99.5t141.5 38.5t141.5 -38.5t98.5 -99.5t54.5 -128t18.5 -132q0 -51 -11 -104t-36 -106t-60 -94t-88.5 -67t-117.5 -26t-117.5 26t-89 67t-60.5 94t-36 106.5t-11 103.5zM240 913q0 -39 3.5 -78.5t14.5 -88.5t28 -86t49 -62t73 -25 q52 0 87 36.5t50 96t20.5 108t5.5 99.5t-5.5 99.5t-20.5 108t-50 96t-87 36.5q-41 0 -73 -25t-49 -62t-28 -86t-14.5 -88.5t-3.5 -78.5zM408 -37l827 1372q16 2 35.5 -7.5t32.5 -27.5l-834 -1382q-25 0 -43 12.5t-18 32.5zM1010 369q0 65 18.5 132t54.5 127.5t98.5 99 t141.5 38.5t141.5 -38.5t98.5 -99t54.5 -127.5t18.5 -132q0 -64 -18.5 -131t-54.5 -128t-98.5 -100t-141.5 -39t-141.5 39t-98.5 100t-54.5 128t-18.5 131zM1157 369q0 -39 3.5 -78.5t14.5 -88.5t28 -86t49 -62t73 -25q42 0 73.5 26t48 62.5t27 86.5t13 88t2.5 77t-2.5 77 t-13 88t-27 86.5t-48 62.5t-73.5 26q-41 0 -73 -25t-49 -62t-28 -86t-14.5 -88.5t-3.5 -78.5z" />
<glyph unicode="&#x26;" horiz-adv-x="1675" d="M129 340q0 77 25 143t74 120.5t103 95.5t130 87q-158 109 -158 248q0 118 86.5 197.5t200.5 79.5q116 0 190 -69t74 -175q0 -37 -12 -69.5t-27 -53.5t-46 -45.5t-50 -36t-58 -33.5l-4.5 -3t-4.5 -2.5l-5 -2.5q92 -57 193 -158t198 -243q39 52 106 163.5t107 194.5 q45 90 45 113q0 11 -14.5 19.5t-38.5 11.5l-69 8q-9 9 -8.5 25.5t12.5 23.5h168q178 0 288 8q10 -7 11 -23.5t-7 -25.5l-90 -14q-33 -5 -63.5 -22.5t-48.5 -32.5t-46.5 -53.5t-37 -52t-39.5 -63.5q-58 -93 -238 -342q20 -31 40.5 -61t27.5 -41q39 -59 79.5 -98t80 -56.5 t70 -23.5t67.5 -6q50 0 100 19t84 54q13 -2 20 -12.5t3 -23.5q-111 -138 -326 -138q-68 0 -128.5 17t-90.5 43q-29 25 -125 188q-221 -248 -447 -248q-103 0 -183.5 34.5t-126 90t-68.5 118t-23 126.5zM283 401q0 -137 85 -223t220 -86q192 0 352 189q-74 130 -189 255.5 t-237 206.5q-90 -45 -160.5 -136.5t-70.5 -205.5zM434 1083q0 -128 168 -223q123 83 123 213q0 74 -37 126t-106 52q-65 0 -106.5 -51t-41.5 -117z" />
<glyph unicode="'" horiz-adv-x="481" d="M154 1384q0 31 20 40.5t68 9.5t68 -9.5t20 -40.5l-11 -79l-53 -330q-24 -25 -49 0l-53 330q-10 72 -10 79z" />
<glyph unicode="(" horiz-adv-x="655" d="M164 553q0 284 115.5 522.5t306.5 364.5q28 -3 28 -31q-315 -331 -315 -856t315 -856q0 -28 -28 -31q-191 126 -306.5 364.5t-115.5 522.5z" />
<glyph unicode=")" horiz-adv-x="655" d="M41 -303q315 331 315 856t-315 856q0 28 29 31q191 -126 306.5 -364.5t115.5 -522.5t-115.5 -522.5t-306.5 -364.5q-29 3 -29 31z" />
<glyph unicode="*" horiz-adv-x="806" d="M78 1204q-5 14 3 28t21 15l256 -129l23 266q9 8 23.5 8t25.5 -8l21 -266l256 129q13 -1 21 -15t3 -28l-235 -164l233 -161q5 -14 -2.5 -29t-21.5 -16l-254 133l-21 -267q-9 -8 -24.5 -8t-24.5 8l-23 267l-254 -133q-13 1 -21 16t-3 29l233 161z" />
<glyph unicode="+" d="M119 371v100h334v336h120v-336h334v-100h-334v-371h-120v371h-334z" />
<glyph unicode="," horiz-adv-x="512" d="M110 -225q-4 19 5 26q28 9 53.5 22t53.5 34.5t44.5 53.5t16.5 69q0 24 -10 44t-26.5 32.5t-31 20t-31 14t-18.5 7.5q-35 18 -35 60q0 38 26.5 65t73.5 27q61 0 111.5 -53.5t50.5 -147.5q0 -114 -74 -187.5t-192 -109.5q-13 4 -17 23z" />
<glyph unicode="-" horiz-adv-x="655" d="M66 410q0 32 16 51l477 45q31 -19 31 -66q0 -31 -17 -51l-477 -45q-30 23 -30 66z" />
<glyph unicode="." horiz-adv-x="512" d="M141 84q0 52 32.5 86.5t82.5 34.5q51 0 83 -35t32 -86q0 -50 -31.5 -81.5t-83.5 -31.5q-46 0 -80.5 31.5t-34.5 81.5z" />
<glyph unicode="/" horiz-adv-x="669" d="M61 -33l428 1438h119l-428 -1438h-119z" />
<glyph unicode="0" d="M88 641q0 79 11 157t32.5 154t56.5 140.5t81 113.5t108 77t135 28t135 -28t108 -77t81 -113.5t56.5 -140.5t32.5 -154t11 -157q0 -99 -15 -193.5t-48.5 -181.5t-82 -152t-120 -104t-158.5 -39t-158.5 39t-120 104t-82 152t-48.5 181.5t-15 193.5zM270 641q0 -50 1.5 -95 t7.5 -109t15.5 -117t28 -108t43 -93t62.5 -62t84 -24t84 24t62.5 62t43 93t28 108t15.5 117t7.5 109t1.5 95t-1.5 95t-7.5 109t-15.5 117t-28 108t-43 93t-62.5 62t-84 24t-84 -24t-62.5 -62t-43 -93t-28 -108t-15.5 -117t-7.5 -109t-1.5 -95z" />
<glyph unicode="1" d="M241 1169.5q-1 16.5 11 22.5q217 39 338 119q13 0 20 -11q-8 -74 -8 -256v-794q0 -125 14 -160t74 -39l86 -6q9 -9 7.5 -28t-11.5 -23q-120 6 -244 6q-125 0 -245 -6q-10 4 -11.5 23t7.5 28l83 6q62 4 75.5 39t13.5 160v696q0 112 -16.5 149.5t-82.5 43.5l-98 8 q-12 6 -13 22.5z" />
<glyph unicode="2" d="M53 20q0 8 23 23q66 43 126.5 101t186.5 194q59 63 104 120.5t91.5 131t72 153.5t25.5 158q0 141 -66.5 220t-189.5 79q-89 0 -156 -54.5t-110 -150.5q-14 -9 -31.5 -0.5t-17.5 27.5q49 134 160.5 211.5t250.5 77.5q153 0 245.5 -92.5t92.5 -241.5q0 -199 -219 -451 l-125 -143q-186 -214 -186 -238q0 -11 12 -14.5t51 -3.5h254q143 0 193 45q40 36 65 84q10 5 24.5 1t20.5 -13q-51 -193 -94 -250q-126 6 -264 6h-297q-159 0 -227 -6q-15 8 -15 26z" />
<glyph unicode="3" d="M84 12q0 32 22.5 56t57.5 24q23 0 43.5 -14t29 -24.5t25.5 -35.5q22 -32 45.5 -46.5t63.5 -14.5q51 0 113.5 31.5t119 83t95 128.5t38.5 158q0 144 -68.5 239t-195.5 95q-129 0 -221 -100q-26 3 -40 23.5t-5 48.5q247 111 328 178q108 89 108 196q0 80 -48.5 128 t-119.5 48q-167 0 -276 -180q-15 -3 -29 5.5t-14 23.5q48 109 150.5 178.5t219.5 69.5q127 0 206 -64t79 -172q0 -72 -45 -133t-174 -129q-14 -28 24 -31q125 -10 211 -93t86 -222q0 -111 -51.5 -217t-146.5 -189q-104 -91 -221.5 -133.5t-206.5 -42.5q-51 0 -94 11t-76 41 t-33 75z" />
<glyph unicode="4" d="M41 422q0 18 7 31.5t30 46.5l657 917q23 29 47 29h35q31 0 31 -16q0 -10 -10 -23l-652 -901q-11 -25 0 -29t58 -4h317q37 0 47 9t10 44v377q0 29 19 41q50 32 104 35q20 1 24.5 -13t4.5 -51v-395q0 -29 7.5 -38t33.5 -9h131q14 -10 14 -41.5t-14 -44.5h-111 q-40 0 -50.5 -7t-10.5 -38v-92q0 -126 13.5 -159t74.5 -40l53 -6q9 -9 7.5 -28t-11.5 -23q-111 6 -213 6q-121 0 -256 -6q-10 4 -11.5 23t7.5 28l92 6q62 4 77 39.5t15 159.5v86q0 36 -9 43.5t-50 7.5h-489q-13 0 -21 10t-8 25z" />
<glyph unicode="5" d="M128.5 -109.5q-1.5 23.5 12.5 33.5q119 7 226 46t187 102t127.5 153t47.5 193q0 84 -34.5 149.5t-89 105t-129.5 65.5t-147 36.5t-151 11.5q-23 0 -26 14.5t8 49.5l108 364q8 27 19.5 40t34.5 16l493 69q8 1 13.5 -5t5.5 -13q-22 -72 -74 -127l-387 -55q-35 -4 -48 -15 t-22 -41l-37 -122q-6 -19 0.5 -27t28.5 -10l43 -4q82 -8 155.5 -26t146 -53.5t124.5 -84t84.5 -122t32.5 -163.5q0 -103 -45 -198t-120 -167t-169.5 -127t-198 -85t-201.5 -33q-17 6 -18.5 29.5z" />
<glyph unicode="6" d="M82 483q0 155 63 325t211 316q75 74 162 130.5t167 88t142 48.5t117 24q10 -4 13 -20t-5 -23q-71 -24 -110 -39.5t-107 -47.5t-126.5 -75.5t-110.5 -99.5q-234 -247 -234 -621q0 -92 16.5 -172t49.5 -144.5t89.5 -102t129.5 -37.5q111 0 171 88t60 225q0 91 -26 166.5 t-84.5 125.5t-141.5 50q-41 0 -94 -16q-9 4 -10.5 14t4.5 19q97 61 201 61q146 0 235.5 -104t89.5 -263q0 -182 -121 -305t-311 -123q-109 0 -194.5 40.5t-138.5 111t-80 162t-27 198.5z" />
<glyph unicode="7" d="M59 1067q52 143 70 221q50 -6 217 -6h346q250 0 275 6q14 -4 14 -18q-85 -131 -193 -350l-522 -1051q-25 -3 -45 8t-24 31l579 1171q23 46 14 61t-59 15h-409q-94 0 -136 -17.5t-84 -86.5q-10 -5 -23.5 -1t-19.5 17z" />
<glyph unicode="8" d="M119 313q0 55 22.5 105t66.5 94t85.5 75.5t101.5 69.5q-231 128 -233 322q-1 152 107 242t270 90q144 0 242 -79t98 -220q0 -25 -4.5 -48t-10.5 -42t-18.5 -39t-22 -33.5t-27.5 -31t-29 -27.5t-33 -25.5t-32.5 -22.5t-33.5 -22.5t-31 -20.5q59 -34 102.5 -67t84 -79 t62 -105.5t21.5 -129.5q0 -160 -113 -254t-296 -94q-57 0 -109.5 11.5t-102.5 37.5t-86.5 64.5t-58.5 97.5t-22 131zM266 332q0 -130 69.5 -214.5t182.5 -84.5q109 0 173.5 67.5t64.5 180.5q0 58 -25.5 111.5t-70.5 95.5t-95.5 74.5t-111.5 60.5q-95 -65 -141 -142t-46 -149 zM309 1022q0 -50 22.5 -95t65 -81t84 -62t97.5 -53q163 118 163 277q0 97 -61 169t-156 72q-101 0 -158 -66t-57 -161z" />
<glyph unicode="9" d="M96 893q0 182 121.5 300t298.5 118q188 0 298 -146t110 -377q0 -179 -76 -360.5t-225 -314.5q-106 -94 -239 -154.5t-249 -81.5q-12 4 -16 22t4 25q180 54 303 144q152 112 233.5 287t81.5 450q0 60 -7 118t-25 118.5t-45 105.5t-72.5 73.5t-102.5 28.5 q-101 0 -165 -74.5t-64 -207.5q0 -84 25.5 -160.5t81 -130t129.5 -53.5q57 0 90 8q6 -3 7.5 -11t-1.5 -14q-69 -59 -184 -59q-129 0 -220.5 95.5t-91.5 250.5z" />
<glyph unicode=":" horiz-adv-x="512" d="M141 84q0 52 32.5 86.5t82.5 34.5q51 0 83 -35t32 -86q0 -50 -31.5 -81.5t-83.5 -31.5q-46 0 -80.5 31.5t-34.5 81.5zM141 686q0 52 32.5 86.5t82.5 34.5q51 0 83 -35t32 -86q0 -50 -31.5 -81.5t-83.5 -31.5q-46 0 -80.5 31.5t-34.5 81.5z" />
<glyph unicode=";" horiz-adv-x="512" d="M110 -225q-4 19 5 26q28 9 53.5 22t53.5 34.5t44.5 53.5t16.5 69q0 24 -10 44t-26.5 32.5t-31 20t-31 14t-18.5 7.5q-35 18 -35 60q0 38 26.5 65t73.5 27q61 0 111.5 -53.5t50.5 -147.5q0 -114 -74 -187.5t-192 -109.5q-13 4 -17 23zM141 686q0 52 32.5 86.5t82.5 34.5 q51 0 83 -35t32 -86q0 -50 -31.5 -81.5t-83.5 -31.5q-46 0 -80.5 31.5t-34.5 81.5z" />
<glyph unicode="&#x3c;" d="M115 375v92l796 379v-119l-649 -303v-4l649 -305v-117z" />
<glyph unicode="=" d="M119 217v100h788v-100h-788zM119 524v101h788v-101h-788z" />
<glyph unicode="&#x3e;" d="M113 -2v117l649 305v4l-649 303v119l796 -379v-92z" />
<glyph unicode="?" horiz-adv-x="657" d="M131 1245q0 32 22 55t60 23q81 0 163 -58.5t135.5 -156.5t53.5 -203q0 -76 -24.5 -122.5t-53.5 -61.5l-161 -86q-72 -38 -72 -90q0 -37 20 -119q-6 -12 -20 -15t-23 5q-27 43 -50 102t-23 100q0 57 27 87.5t83 60.5l101 53q112 59 112 150q0 80 -45 125q-40 40 -94 52.5 t-143 12.5q-18 0 -43 25.5t-25 60.5zM143 84q0 52 32.5 86.5t82.5 34.5q51 0 83 -35t32 -86q0 -50 -31.5 -81.5t-83.5 -31.5q-46 0 -80.5 31.5t-34.5 81.5z" />
<glyph unicode="@" horiz-adv-x="1566" d="M92 313q0 175 67 324.5t179 249t258.5 155.5t304.5 56q142 0 258.5 -44.5t191 -119.5t114.5 -170t40 -199q0 -99 -36.5 -188t-103 -157t-168 -108t-222.5 -40q-148 0 -148 45q0 18 17 63l51 129l-4 2q-93 -96 -208.5 -167.5t-178.5 -71.5q-40 0 -62 27t-22 65 q0 40 37.5 129t117.5 186q209 258 410 258q22 0 45.5 -12.5t30.5 -32.5l51 105q23 9 53 0t45 -25q-30 -68 -123.5 -288.5t-115.5 -278.5q-14 -35 -3 -51t50 -15q110 4 199.5 53.5t144.5 144.5t55 220q0 141 -71 249.5t-191.5 165t-271.5 56.5q-148 0 -272 -58.5t-206 -157 t-127 -227t-45 -270.5q0 -77 18 -152t62.5 -150.5t112 -132.5t175.5 -92.5t243 -35.5q68 0 135 13.5t100.5 25.5t81.5 33q11 -5 16 -16t1 -23q-85 -54 -191.5 -79t-204.5 -25q-103 0 -201.5 24t-187.5 75t-155.5 123.5t-106 178t-39.5 231.5zM582 193q0 -27 24 -27 q8 0 25.5 7t55.5 33t83 66q69 61 145.5 170t98.5 164q-8 25 -32 42.5t-56 17.5q-31 0 -59 -14t-70 -48q-84 -67 -149.5 -196t-65.5 -215z" />
<glyph unicode="A" horiz-adv-x="1275" d="M-52 18v7q0 14 7 20l68 6q85 7 122 101q11 28 41 101t66 163.5t74 191.5l209 553q35 91 35 133q0 7 -1 13q55 16 107 77q26 0 31 -18q30 -98 90 -274l280 -824q44 -131 75.5 -170t98.5 -47l56 -6q9 -7 9 -23q0 -20 -9 -28q-126 6 -248 6q-59 0 -236 -6q-12 6 -13.5 25 t9.5 26l60 6q71 7 71 37q0 29 -26 109l-90 278q-11 34 -24.5 42.5t-59.5 8.5h-310q-39 0 -53.5 -8.5t-24.5 -40.5l-71 -215q-45 -134 -45 -170q0 -20 12 -29t47 -12l68 -6q11 -7 10 -26t-14 -25q-29 2 -213 6q-32 0 -197 -6q-9 6 -11 24zM422 615q6 -7 49 -7h252q43 0 51 12 q3 4 3 11q0 14 -9 41l-111 334q-32 97 -47 129h-4q-9 -15 -49 -121l-129 -357q-8 -23 -8 -34q0 -6 2 -8z" />
<glyph unicode="B" horiz-adv-x="1239" d="M98 1341q189 17 441 17q230 0 344 -58q155 -76 155 -256q0 -103 -53.5 -168t-155.5 -112q0 -24 39 -31q45 -8 90.5 -32t88 -63.5t69.5 -104t27 -142.5q0 -184 -138 -290.5t-407 -106.5q-26 0 -113 3t-133 3q-7 0 -235 -6q-9 5 -11 23.5t7 27.5l37 6q22 4 36 7t27 11 t20.5 14t13.5 22.5t8.5 30t4.5 43.5t2 55.5v72.5v778q0 119 -17 156t-83 43l-66 6q-11 8 -11 24q0 20 13 27zM430 338q0 -173 43 -223q48 -58 162 -58q146 0 233.5 70.5t87.5 216.5q0 52 -10.5 99t-39 94t-73 81t-117.5 55t-167 21q-79 0 -99 -10t-20 -43v-303zM430 813 q0 -20 1 -28.5t6.5 -17.5t17 -9t31.5 -3q9 -1 19 -1q14 0 32 2q165 6 243 64.5t78 197.5q0 73 -25.5 127.5t-69 86t-96.5 47t-114 15.5q-67 0 -94 -12q-16 -5 -22.5 -15.5t-6.5 -37.5v-416z" />
<glyph unicode="C" horiz-adv-x="1425" d="M90 668q0 163 64 299t174.5 226.5t258 140.5t314.5 50q82 0 186 -14t177 -35q41 -10 57 -8q5 -112 29 -301q-7 -10 -26.5 -11.5t-29.5 7.5q-67 299 -420 299q-95 0 -180.5 -23.5t-158.5 -74t-126.5 -123t-83.5 -175.5t-30 -227q0 -157 47.5 -285t130.5 -210.5t193 -127 t237 -44.5q76 0 141.5 19.5t110 48.5t81.5 70t58 78t37 77q10 8 28.5 4.5t24.5 -13.5q-10 -75 -41.5 -161.5t-56.5 -118.5q-22 -3 -72 -21q-42 -15 -138.5 -31t-184.5 -16q-305 0 -510 137q-132 91 -211.5 233.5t-79.5 330.5z" />
<glyph unicode="D" horiz-adv-x="1597" d="M85 18v6q0 14 7 21l47 6q32 4 50.5 8.5t34 18t22 26t11 46t5 64.5t0.5 93v778q0 113 -17 151.5t-79 47.5l-45 6q-13 8 -13 26.5t15 24.5q296 17 514 17q282 0 450 -62q202 -73 309 -234.5t107 -369.5q0 -197 -92.5 -356.5t-265.5 -253.5q-181 -98 -459 -98q-73 0 -189 8 t-145 8q-112 0 -256 -6q-9 6 -11 24zM430 354q0 -89 8 -138.5t33 -84.5q33 -46 92.5 -65t159.5 -19q146 0 257 46t180 132t103.5 202t34.5 261q0 52 -7.5 104.5t-27 113.5t-50 115t-81.5 105t-116 87.5t-158.5 58.5t-204.5 22q-165 0 -202 -28q-21 -16 -21 -156v-756z" />
<glyph unicode="E" horiz-adv-x="1196" d="M61 18v6q0 14 7 21l67 6q37 3 58.5 10.5t36.5 21t21 45.5t8.5 70t2.5 109v737q0 53 -0.5 81t-3 60t-8 46.5t-13.5 30t-22.5 22t-32.5 11.5t-45 8l-33 4q-9 6 -6.5 26t11.5 25q132 -6 241 -6h385q252 0 277 6q10 -30 32 -273q-6 -9 -24.5 -11t-26.5 7q-30 94 -49 123 q-35 54 -106 72q-52 12 -199 12h-147q-45 0 -53.5 -11.5t-8.5 -70.5v-409q0 -42 10.5 -50t57.5 -8h118q134 0 175 13q20 7 31 21t18 50l16 84q7 9 27 8.5t26 -10.5q0 -21 -4 -92.5t-4 -114.5q0 -41 4 -109t4 -87q-6 -10 -26 -10.5t-27 8.5l-18 80q-13 62 -65 78 q-41 10 -157 10h-118q-47 0 -57.5 -8.5t-10.5 -47.5v-288q0 -90 8 -139t31 -74q23 -23 74.5 -35.5t173.5 -12.5q117 0 172.5 6.5t89.5 24.5q62 34 145 199q10 8 28 3.5t24 -17.5q-10 -53 -41.5 -148t-51.5 -137q-276 6 -548 6h-185q-97 0 -278 -6q-9 6 -11 24z" />
<glyph unicode="F" horiz-adv-x="1101" d="M81 18v6q0 14 7 21l51 6q32 4 50.5 8t34 17.5t22 26.5t11 46.5t5 64.5t0.5 93v737q0 63 -0.5 94t-5 65t-11 47t-21.5 26.5t-34 18t-51 8.5l-33 4q-9 6 -6.5 26t11.5 25q129 -6 237 -6h377q249 0 276 6q0 -134 7 -271q-5 -9 -22 -12t-28 6q-7 39 -15 66t-23.5 55t-41.5 46 t-63 28q-45 12 -199 12h-124q-45 0 -53.5 -11.5t-8.5 -70.5v-432q0 -40 10.5 -47.5t57.5 -7.5h139q137 0 174 12q20 7 31.5 21t19.5 51l19 82q8 9 27.5 9t25.5 -9q0 -21 -4 -93.5t-4 -113.5q0 -32 2 -71.5t4 -74t2 -53.5q-6 -9 -24 -9t-29 9l-21 80q-4 17 -10 29.5t-15 21.5 t-16.5 15.5t-23.5 10.5l-26 6.5t-33 3.5t-37.5 1h-44.5h-17h-139q-47 0 -57.5 -8t-10.5 -47v-285q0 -54 0.5 -82t3 -60t8 -46.5t13.5 -29.5t22.5 -21t32.5 -10.5t45 -6.5l70 -6q9 -6 7 -26t-11 -25q-181 6 -273 6q-112 0 -256 -6q-9 6 -11 24z" />
<glyph unicode="G" horiz-adv-x="1529" d="M94 659q0 135 46.5 261.5t138.5 224.5q229 239 649 239q129 0 260 -30q95 -19 121 -19h6q0 -85 31 -297q-4 -12 -25.5 -13.5t-30.5 7.5q-41 158 -147 224.5t-273 66.5q-116 0 -211.5 -32t-161.5 -87t-111 -130.5t-66 -161t-21 -179.5q0 -119 24 -224t74 -193t122 -151 t172.5 -98.5t221.5 -35.5q92 0 150 16.5t76 44.5q20 28 20 117v82q0 49 -0.5 74t-6 50t-12 34.5t-24 19.5t-36.5 13t-54 7l-90 11q-12 6 -11.5 26t11.5 25q88 -6 293 -6q115 0 217 6q12 -6 12 -26q0 -16 -10 -25l-33 -4q-25 -3 -42 -12.5t-26 -21.5t-13.5 -36.5t-5.5 -44 t-1 -57.5v-115q0 -127 49 -146q5 -4 4.5 -12t-6.5 -12q-26 0 -100 -19q-199 -53 -367 -53q-399 0 -624 228q-189 189 -189 464z" />
<glyph unicode="H" horiz-adv-x="1650" d="M81 1333q2 20 11 25q31 -1 119 -3.5t139 -2.5q106 0 238 6q9 -5 11 -25t-7 -26l-39 -4q-24 -2 -40 -5t-29.5 -10.5t-21.5 -14.5t-15 -24t-9.5 -31.5t-4.5 -44.5t-2.5 -56t-0.5 -73v-235q0 -47 14.5 -56.5t87.5 -9.5h586q74 0 88.5 9.5t14.5 56.5v235q0 63 -0.5 94t-5 65 t-11.5 47.5t-22 27t-34.5 18t-51.5 7.5l-39 4q-9 6 -7 26t11 25q141 -6 248 -6q103 0 241 6q9 -5 11 -25t-7 -26l-43 -4q-24 -2 -39.5 -5t-29.5 -11t-22 -14.5t-14.5 -23.5t-9.5 -31t-4.5 -45t-2 -56t-0.5 -73v-737q0 -48 0.5 -73t2 -55.5t4.5 -44t9.5 -30.5t14.5 -23 t22 -13.5t29.5 -10.5t39.5 -6l50 -6q7 -5 7 -18v-8q-2 -20 -12 -25q-147 6 -247 6q-113 0 -248 -6q-9 5 -11 23.5t7 27.5l39 6q20 3 34 5.5t27 8.5t21 9t16 14.5t11.5 17t7 24.5t5 30t2.5 40t1 47.5v59.5v289q0 46 -15 56t-88 10h-586q-73 0 -87.5 -10t-14.5 -56v-289 q0 -59 1 -93t6 -65.5t12 -46t22.5 -27t34 -17t49.5 -7.5l59 -6q9 -6 7 -26t-11 -25q-166 6 -260 6q-39 0 -78.5 -1t-85.5 -2.5t-73 -2.5q-9 5 -11 23.5t7 27.5l34 6q31 5 49 10t33 18.5t21 25.5t10.5 45t5 64t0.5 93v737q0 69 -2.5 109.5t-9 71.5t-21.5 46t-34.5 22 t-53.5 10l-53 4q-7 5 -7 19v7z" />
<glyph unicode="I" horiz-adv-x="692" d="M79 18v6q0 14 7 21l51 6q24 3 40 6t30.5 10.5t22.5 14t15 23.5t9.5 31.5t4.5 45t2.5 56.5t0.5 73v729q0 63 -0.5 95t-5 66.5t-11.5 48.5t-22 28t-34.5 18t-51.5 7l-51 4q-7 5 -7 19v7q2 20 11 25q153 -6 258 -6q101 0 254 6q9 -5 11 -25v-7q0 -14 -7 -19l-51 -4 q-32 -3 -51.5 -7t-34.5 -18t-22 -28t-11.5 -48.5t-5 -66.5t-0.5 -95v-729q0 -47 0.5 -73t2.5 -56.5t4.5 -45t9.5 -31.5t15 -23.5t22.5 -14t30.5 -10.5t40 -6l51 -6q7 -5 7 -19v-7q-2 -20 -11 -25q-153 6 -254 6q-105 0 -258 -6q-9 6 -11 24z" />
<glyph unicode="J" horiz-adv-x="706" d="M-78 -369q0 30 22 62.5t52 32.5q26 0 80.5 -13.5t81.5 -13.5q56 0 82 53q21 44 34 154.5t16 195.5t3 164v774q0 118 -11 169t-38 70t-92 24l-52 4q-9 6 -7 26t11 25q179 -6 275 -6q110 0 233 6q9 -5 11 -25v-7q0 -14 -7 -19l-30 -4q-28 -4 -45.5 -9t-32 -11.5t-22.5 -22 t-14 -30t-8 -47t-2.5 -61t-0.5 -82.5v-759q0 -285 -47 -398q-54 -130 -160.5 -212.5t-243.5 -82.5q-88 0 -88 43z" />
<glyph unicode="K" horiz-adv-x="1382" d="M81 1333q2 20 11 25q150 -6 258 -6q106 0 238 6q9 -5 11 -25t-7 -26l-39 -4q-24 -2 -40 -5t-29.5 -10.5t-21.5 -14.5t-15 -24t-9.5 -31.5t-4.5 -44.5t-2.5 -56t-0.5 -73v-235q0 -78 27 -78q25 0 57 23q15 13 54.5 51t49.5 47l222 219q33 32 89 91t70 79q15 21 15 33 t-35 20l-55 13q-11 10 -9.5 27t13.5 24q108 -6 225 -6q111 0 203 6q10 -7 11.5 -24.5t-7.5 -26.5q-104 -8 -191 -58q-92 -53 -286 -237l-185 -174q-47 -47 -47 -64q0 -15 39 -63q40 -46 134.5 -155t139.5 -159.5t113.5 -126.5t124.5 -135q74 -74 164 -84l55 -6q9 -7 9 -22 q0 -23 -13 -29q-79 6 -229 6q-109 0 -250 -6q-11 3 -14 22.5t6 28.5l47 8q49 7 49 21q0 10 -29 47q-17 22 -40.5 48.5t-62.5 69t-67 74.5l-163 185q-108 121 -134 143q-34 29 -65 29q-22 0 -28.5 -20.5t-6.5 -78.5v-264q0 -47 0.5 -73t2 -56t4.5 -44t9.5 -30.5t14.5 -23 t21 -14t28.5 -10.5t38.5 -5l55 -6q9 -6 7 -26t-11 -25q-150 6 -250 6q-111 0 -237 -6q-9 5 -11 22.5t7 28.5l41 6q22 3 36.5 6t27 11t20 14t13.5 23t8.5 30.5t4.5 43.5t2 55.5v72.5v737q0 63 -0.5 94t-5 65.5t-11.5 48t-21.5 27t-34 17.5t-50.5 7l-51 4q-7 5 -7 19v7z" />
<glyph unicode="L" horiz-adv-x="1132" d="M71 18v6q0 14 7 21l61 6q24 2 39.5 5t29.5 10.5t22 14t15 23t9.5 30.5t4.5 44.5t2.5 56t0.5 72.5v737q0 63 -0.5 94t-5.5 65.5t-12 48t-23 27t-37 17.5t-55 7l-51 4q-7 5 -7 19v7q2 20 11 25q173 -6 266 -6q99 0 252 6q9 -5 11 -25t-7 -26l-49 -4q-32 -3 -51.5 -7 t-34.5 -17.5t-22 -27t-11.5 -48t-5 -65.5t-0.5 -94v-712q0 -102 8 -147.5t35 -73.5q14 -14 32 -23t66.5 -17t124.5 -8q123 0 173 6t77 21q32 19 68.5 73t66.5 130q9 8 30.5 3t21.5 -15q0 -20 -33 -134.5t-53 -152.5q-156 6 -510 6h-189q-94 0 -266 -6q-9 6 -11 24z" />
<glyph unicode="M" horiz-adv-x="1867" d="M50 20v6q0 13 7 19l45 6q48 7 70 18t36.5 45t20.5 105q25 280 35 451q17 293 23 456v21q0 81 -21 111q-24 33 -116 45l-33 4q-8 9 -6 27t14 24q91 -6 162 -6q102 0 170 6q-1 -8 -1 -16q0 -100 107 -322l234 -473q107 -219 141 -281h4q52 90 158 307l192 392 q105 213 127 271q27 71 29 122q70 -6 154 -6q88 0 182 6q9 -6 9.5 -25.5t-7.5 -25.5l-43 -4q-94 -9 -120 -47q-24 -35 -24 -133v-15q1 -34 3 -182.5t4 -240t6 -228.5t10 -240q5 -91 15 -115q18 -45 85 -51l66 -6q8 -8 8 -22q0 -22 -12 -29q-126 6 -242 6q-122 0 -248 -6 q-10 7 -11.5 24.5t7.5 26.5l60 6q31 3 49 10.5t29 16t15.5 33.5t5.5 45.5t1 68.5l-6 854h-4q-6 -10 -30 -58t-55.5 -112t-47.5 -96l-183 -358q-162 -316 -221 -467q-5 -8 -20 -8q-14 0 -19 8q-26 82 -180 409l-184 396q-16 36 -61 138.5t-70 155.5h-4q-1 -23 -7.5 -120 t-8 -123t-6 -105.5t-6 -120.5t-4 -110.5t-3 -132.5t-0.5 -133q0 -116 16.5 -151.5t75.5 -39.5l78 -6q10 -9 9.5 -27.5t-11.5 -23.5q-105 6 -228 6q-104 0 -209 -6q-9 8 -11 26z" />
<glyph unicode="N" horiz-adv-x="1603" d="M55 1358q86 -6 232 -6q53 0 94 6q42 -107 350 -451l199 -223q260 -292 338 -371h4q8 10 8 86v439q0 360 -41 424q-19 28 -127 41l-35 4q-11 9 -9.5 28t13.5 23q141 -6 242 -6q106 0 211 6q12 -6 12 -24q0 -1 1 -2q0 -16 -9 -25l-29 -4q-100 -15 -114 -43 q-6 -12 -10.5 -30t-7.5 -42.5t-5.5 -48t-4 -55.5t-2 -55t-1 -57t-0.5 -50.5v-47v-36.5v-490q0 -305 6 -358q-8 -23 -39 -23q-39 55 -262 309l-475 541q-14 16 -113.5 133.5t-124.5 143.5h-4q-10 -31 -10 -133v-447q0 -360 37 -424q17 -32 104 -39l64 -6q9 -12 8 -27.5 t-12 -23.5q-138 6 -240 6q-105 0 -213 -6q-10 7 -11.5 24.5t7.5 26.5l55 6q76 10 90 41q27 69 27 422v592q0 51 -8 83t-37 64q-39 39 -127 50l-35 4q-9 9 -9 25q0 20 13 26z" />
<glyph unicode="O" horiz-adv-x="1628" d="M94 662q0 152 55 285.5t151 229.5t231.5 151.5t291.5 55.5q138 0 255 -38.5t200 -105t141.5 -156t86.5 -191.5t28 -211q0 -152 -56 -286t-151 -227.5t-226.5 -147.5t-277.5 -54q-166 0 -305 56.5t-231 152.5t-142.5 221.5t-50.5 264.5zM299 727q0 -95 18 -189 t60.5 -186.5t104 -163t157 -114t211.5 -43.5q95 0 179 36t152 105.5t108 184.5t40 261q0 105 -18.5 203t-60 190t-102.5 160t-154 109t-206 41q-67 0 -132.5 -18t-131 -62.5t-115 -110t-80 -170t-30.5 -233.5z" />
<glyph unicode="P" horiz-adv-x="1124" d="M96 1341q132 17 406 17q260 0 393 -82q74 -47 119 -126t45 -181q0 -67 -19 -123.5t-51.5 -95t-65 -64t-69.5 -43.5q-128 -61 -283 -61q-10 4 -10.5 21t8.5 20q159 30 230 117t71 227q0 152 -86 239.5t-243 87.5q-57 0 -78.5 -5.5t-27 -18t-5.5 -49.5v-914 q0 -63 0.5 -93.5t5.5 -64.5t12 -46.5t24 -26t37.5 -17.5t55.5 -8l56 -6q9 -8 6.5 -27t-11.5 -24q-175 6 -266 6q-115 0 -250 -6q-9 5 -11 23.5t7 27.5l43 6q32 4 50.5 8.5t34 18t22 26t11 46t5 64.5t0.5 93v756q0 137 -15 174.5t-81 44.5l-74 8q-10 8 -10 23q0 21 14 28z " />
<glyph unicode="Q" horiz-adv-x="1628" d="M94 662q0 152 55 285.5t151 229.5t231.5 151.5t291.5 55.5q138 0 255 -38.5t200 -105t141.5 -156t86.5 -191.5t28 -211q0 -249 -138 -433.5t-358 -250.5q-4 -10 17 -31q272 -262 456 -321q88 -29 191 -29q54 0 98 18q9 -1 12 -12q1 -4 1 -8q0 -6 -3 -10q-96 -54 -229 -54 q-165 0 -332 76q-192 89 -379 271q-43 43 -66.5 55t-70.5 20q-119 18 -201 50q-204 76 -321 247.5t-117 391.5zM299 727q0 -95 18 -189t60.5 -186.5t104 -163t157 -114t211.5 -43.5q95 0 179 36t152 105.5t108 184.5t40 261q0 105 -18.5 203t-60 190t-102.5 160t-154 109 t-206 41q-67 0 -132.5 -18t-131 -62.5t-115 -110t-80 -170t-30.5 -233.5z" />
<glyph unicode="R" horiz-adv-x="1320" d="M81 16v7q0 13 7 22l51 6q32 4 50.5 8t34 17.5t22 26.5t11 46.5t5 64.5t0.5 93v735q0 151 -14.5 192t-75.5 48l-66 8q-11 7 -10 26t13 25q196 17 456 17q228 0 342 -62q170 -88 170 -286q0 -69 -25 -129t-65.5 -101t-81.5 -68t-84 -44q-12 -15 10 -50q138 -222 226.5 -342 t185.5 -202q59 -52 141 -58q9 -3 9 -14q0 -9 -7 -14q-33 -11 -90 -11q-135 0 -226.5 54t-197.5 205q-27 38 -98 150.5t-102 158.5q-24 35 -55.5 50t-90.5 15q-69 0 -82.5 -6.5t-13.5 -38.5v-258q0 -62 0.5 -93t5 -64.5t11 -46t22 -26t34 -18t50.5 -8.5l43 -6q9 -8 7 -27 t-11 -24q-138 6 -244 6q-112 0 -256 -6q-9 4 -11 22zM430 750q0 -60 6 -68q10 -10 142 -10q141 0 210 53q103 81 103 254q0 132 -84 223.5t-244 91.5q-66 0 -92 -5t-33.5 -17t-7.5 -43v-479z" />
<glyph unicode="S" horiz-adv-x="1001" d="M84 330q8 11 25.5 13t23.5 -7q11 -38 25.5 -72t43.5 -79.5t65 -77t93 -54t125 -22.5q123 0 189.5 68t66.5 167q0 39 -5.5 70.5t-22 69.5t-51.5 75.5t-89 71.5l-194 127q-221 147 -221 352q0 152 112 252t305 100q93 0 191 -26q41 -12 72 -12q14 -38 25 -112.5t11 -137.5 q-6 -9 -24.5 -12t-26.5 6q-10 35 -20.5 62t-32.5 61t-50 55.5t-73 37t-102 15.5q-71 0 -122 -21.5t-76 -57.5t-35.5 -72t-10.5 -76q0 -80 51.5 -144t122.5 -108l164 -103q256 -159 256 -393q0 -170 -119 -274.5t-317 -104.5q-191 0 -320 76q-18 33 -35 123t-20 164z" />
<glyph unicode="T" horiz-adv-x="1351" d="M14 1110q49 138 78 305q6 3 20 3q2 0 3 1q12 0 16 -4q3 -18 13.5 -30.5t22 -19t36 -9.5t40.5 -3.5t50 -0.5h6.5h5.5h830q85 0 110.5 9t48.5 48q7 3 20.5 1.5t16.5 -7.5q-17 -61 -27 -162q-6 -66 -6 -110q0 -23 2 -39q-6 -12 -26 -13t-27 8q-14 123 -51 150 q-68 51 -238 51h-145q-45 0 -52 -8.5t-7 -60.5v-912q0 -63 0.5 -94t5 -65t11 -47t21.5 -26t34 -17t51 -7l65 -6q9 -6 7 -26t-11 -25q-176 6 -268 6q-88 0 -285 -6q-10 5 -10.5 24t10.5 27l74 6q37 3 58.5 10.5t36.5 21t21 45.5t8.5 70t2.5 109v916q0 47 -8 56t-54 9h-112 q-197 0 -252 -51q-23 -21 -41 -47t-27 -43t-24 -51q-12 -9 -30 -3.5t-24 17.5z" />
<glyph unicode="U" horiz-adv-x="1527" d="M65 1334q2 19 11 24q153 -6 254 -6q102 0 252 6q9 -5 11 -24t-7 -25l-49 -4q-23 -2 -39.5 -5t-30 -10.5t-22 -14t-15 -23.5t-9.5 -31.5t-4.5 -45t-2 -56t-0.5 -72.5v-443q0 -128 21.5 -225t68.5 -171t128.5 -112.5t196.5 -38.5q108 0 188.5 41t128 115.5t70.5 171.5 t23 217v236q0 356 -39 424q-21 37 -102 43l-51 4q-9 11 -7 27t11 22q117 -6 233 -6q104 0 215 6q12 -7 12 -25q0 -15 -8 -24l-49 -4q-38 -3 -65.5 -16.5t-36.5 -33.5q-29 -68 -29 -417v-232q0 -336 -143 -489q-65 -71 -170.5 -110.5t-221.5 -39.5q-251 0 -382 113 q-82 68 -121 184.5t-39 298.5v484q0 47 -0.5 72.5t-2 56t-4.5 45t-9.5 31.5t-15 23.5t-22 14t-30 10.5t-39.5 5l-51 4q-7 5 -7 19v6z" />
<glyph unicode="V" horiz-adv-x="1384" d="M6 1358q89 -6 213 -6q119 0 248 6q11 -6 12.5 -24t-8.5 -27l-31 -4q-93 -12 -96 -39q14 -68 102 -287q171 -432 291 -707q28 60 64.5 144.5t78.5 183.5t54 127q118 278 190 459q19 51 19 80t-92 39l-37 4q-10 9 -8.5 27t12.5 24q85 -6 213 -6q97 0 199 6q10 -6 11 -25v-4 q0 -16 -7 -22l-62 -4q-64 -5 -106 -72q-88 -148 -230 -471l-110 -252q-156 -358 -213 -535q-9 -6 -23 -6q-16 0 -31 6q-33 123 -94 273l-360 889q-37 91 -70 126t-96 42l-37 4q-10 8 -10 22q0 21 14 29z" />
<glyph unicode="W" horiz-adv-x="1966" d="M0 1358q82 -6 211 -6q125 0 233 6q13 -4 14 -21.5t-9 -27.5l-48 -4q-67 -6 -67 -35q0 -31 106 -275q113 -251 355 -764q98 204 157 332q33 71 33 84t-16 53q-96 219 -226 492q-27 54 -55 81.5t-76 31.5l-49 4q-11 12 -9.5 27.5t13.5 21.5q89 -6 219 -6q156 0 226 6 q10 -4 11.5 -20.5t-7.5 -28.5l-53 -4q-59 -4 -66 -24q-1 -4 -1 -9q0 -24 24 -80q64 -148 157 -356q73 150 121 268q28 66 40.5 104.5t10.5 60t-14 28t-39 8.5l-61 4q-10 15 -8.5 29.5t12.5 19.5q82 -6 192 -6q127 0 197 6q10 -4 11.5 -20.5t-7.5 -28.5l-59 -4 q-18 -1 -33.5 -6.5t-30 -18.5t-24.5 -22.5t-22.5 -31t-19 -32t-20 -37t-18.5 -35.5q-31 -55 -83 -161.5t-77 -163.5q-19 -38 -19 -49q0 -13 15 -50q28 -63 99.5 -221.5t109.5 -245.5q214 485 348 840q61 167 61 186q0 45 -67 48l-60 4q-12 14 -11 28.5t13 20.5 q117 -6 197 -6q110 0 190 6q11 -4 13 -20q0 -2 1 -4q0 -14 -10 -25l-38 -4q-67 -7 -102 -57.5t-117 -241.5q-16 -37 -25 -58l-150 -346q-135 -313 -256 -629q-9 -6 -24 -6q-17 0 -29 6q-23 63 -59.5 151.5t-64 150.5t-70.5 158t-54 122q-182 -369 -256 -582q-9 -6 -24 -6 q-16 0 -31 6q-80 198 -141 330q-40 87 -177 388.5t-214 465.5q-19 41 -28.5 59t-28 42t-40.5 34t-53 13l-49 4q-8 8 -8 21q0 21 14 28z" />
<glyph unicode="X" horiz-adv-x="1316" d="M-23 18v5q0 14 9 22l51 6q74 8 129.5 55t114.5 127q202 266 278 377q19 27 19 41q0 11 -25 47l-307 441q-54 77 -90.5 109.5t-87.5 43.5l-66 15q-8 9 -6.5 28t10.5 23q144 -6 238 -6q143 0 231 6q10 -4 11.5 -22.5t-7.5 -28.5l-57 -4q-27 -1 -44.5 -9.5t-17.5 -17.5 q0 -24 62 -113q18 -26 76 -112.5t105.5 -154t80.5 -108.5q35 43 133 195t141 223q29 49 29 68q0 8 -19.5 15.5t-47.5 10.5l-54 7q-9 10 -8.5 27.5t12.5 23.5q108 -6 217 -6q103 0 197 6q10 -7 11.5 -24.5t-7.5 -26.5l-49 -4q-87 -9 -219 -175q-80 -102 -266 -362 q-21 -32 -21 -39q0 -17 27 -53l346 -488q51 -70 94 -100t92 -35l72 -6q10 -9 10 -24q0 -18 -12 -27q-141 6 -258 6q-153 0 -264 -6q-9 9 -10.5 25.5t6.5 25.5l59 6q70 6 70 27q0 27 -45 90q-19 28 -87.5 126t-117 165.5t-88.5 120.5q-45 -58 -138 -197.5t-151 -239.5 q-27 -49 -27 -65q0 -21 60 -27l55 -6q10 -9 8.5 -26t-10.5 -25q-111 6 -221 6q-112 0 -211 -6q-13 6 -15 24z" />
<glyph unicode="Y" horiz-adv-x="1175" d="M-2 1358q99 -6 238 -6q142 0 219 6q13 -4 14.5 -23t-8.5 -28l-27 -4q-51 -7 -68.5 -15.5t-17.5 -21.5t25 -72t39 -86q19 -38 70 -142.5t88 -177t73 -135.5q138 239 193 346q133 247 133 271q0 9 -25 19t-61 14l-37 4q-11 10 -9.5 27.5t13.5 23.5q111 -6 197 -6 q85 0 190 6q12 -7 13 -24q1 -3 1 -5q0 -14 -10 -22l-57 -11q-17 -3 -33 -9.5t-32.5 -19t-29 -23t-29 -33t-27 -36.5t-29 -45t-28 -46.5t-31.5 -54t-32 -56.5l-129 -223q-68 -118 -82 -166t-14 -166v-107q0 -71 2.5 -111t8.5 -72t21 -46t35.5 -21t55.5 -10l78 -6 q9 -9 7 -27.5t-11 -23.5q-191 6 -279 6q-104 0 -268 -6q-9 5 -11 23.5t7 27.5l63 6q24 2 39.5 5t29.5 10.5t22 14t15 23.5t9.5 31.5t4.5 45t2.5 56.5t0.5 74v105q0 85 -10.5 126.5t-54.5 127.5l-242 471q-49 94 -79.5 120.5t-82.5 34.5l-57 11q-8 9 -8 23q0 21 12 28z" />
<glyph unicode="Z" horiz-adv-x="1312" d="M55 18q33 31 105 121t119 158l442 629q31 44 70 99l58.5 82.5t39 57.5t31.5 52q24 43 24 55q0 16 -74 16h-305q-129 0 -199.5 -14.5t-105.5 -52.5q-52 -57 -90 -140q-13 -6 -29 -1.5t-22 16.5q44 128 84 307q6 5 16.5 5t18.5 -5q4 -36 38 -43.5t164 -7.5h541q201 0 236 6 q12 -3 12 -19q-38 -33 -141.5 -169.5t-194.5 -268.5l-338 -487q-203 -291 -203 -318q0 -14 13 -19.5t45 -8.5q66 -5 303 -5q292 0 379 48q80 45 143 188q13 5 30 2t21 -16q-15 -78 -42 -166.5t-50 -124.5q-170 6 -373 6h-526q-88 0 -229 -6q-11 6 -11 24z" />
<glyph unicode="[" horiz-adv-x="655" d="M240 -307v1712h141q34 0 71.5 -1t82.5 -2.5t71 -2.5q10 -6 10.5 -20.5t-8.5 -24.5l-182 -21q-33 -2 -51 -20q-27 -27 -27 -320v-889q0 -292 27 -319q19 -19 51 -21l182 -20q9 -10 8.5 -24.5t-10.5 -20.5q-26 -1 -71 -2.5t-82.5 -2.5t-71.5 -1h-141z" />
<glyph unicode="\" horiz-adv-x="632" d="M61 1405h119l391 -1438h-118z" />
<glyph unicode="]" horiz-adv-x="655" d="M38.5 -280.5q-0.5 14.5 8.5 24.5l182 20q33 2 52 21q26 26 26 319v889q0 294 -26 320q-17 17 -52 20l-182 21q-9 10 -8.5 24.5t10.5 20.5q26 1 71 2.5t82.5 2.5t71.5 1h142v-1712h-142q-34 0 -71.5 1t-82.5 2.5t-71 2.5q-10 6 -10.5 20.5z" />
<glyph unicode="^" d="M100 500l363 782h98l361 -782h-127l-283 637l-283 -637h-129z" />
<glyph unicode="_" d="M0 -154h1024v-102h-1024v102z" />
<glyph unicode="`" horiz-adv-x="737" d="M129 1278q0 20 39 51q45 29 70 29q26 0 47 -47l161 -330q0 -12 -16 -19.5t-27 -5.5l-239 261q-35 38 -35 61z" />
<glyph unicode="a" horiz-adv-x="827" d="M72 162q0 61 37 100t133 74l243 88q22 7 28.5 20t6.5 39l2 95q1 32 -5 60.5t-21 56.5t-46.5 44.5t-76.5 16.5q-48 0 -88 -24t-43 -68q-3 -57 -21 -70q-22 -18 -56.5 -28.5t-60.5 -10.5q-28 0 -28 29q0 51 63.5 111t154 100.5t163.5 40.5q109 0 163 -62q50 -57 50 -159 v-19l-13 -356q-1 -13 -1 -25q0 -154 96 -154q25 0 51 13q23 14 26 14q6 0 10.5 -8t4.5 -19q0 -7 -21 -27.5t-63.5 -41.5t-87.5 -21q-83 0 -133 64q-19 28 -33 28q-4 0 -9.5 -1.5t-13.5 -6t-15 -8.5t-20 -11.5t-22 -12.5q-34 -19 -48 -26t-43.5 -16.5t-55.5 -9.5 q-92 0 -149.5 52.5t-57.5 138.5zM229 186q0 -23 9.5 -48.5t40.5 -50t79 -24.5q29 0 68.5 17.5t56.5 34.5q12 12 18 28.5t7 27.5t2 40l4 121q0 16 -5 21t-15 5q-22 0 -84 -20q-99 -34 -140 -65t-41 -87z" />
<glyph unicode="b" d="M62 1358q0 16 8 20q12 5 57 19.5t88 31.5t78 35q14 0 20 -12q-8 -144 -8 -254v-387q0 -43 21 -43q116 68 235 68q172 0 281.5 -115.5t109.5 -286.5q0 -204 -132.5 -333.5t-338.5 -129.5q-82 0 -174 27q-15 5 -36 12.5t-32 11t-18 3.5q-21 0 -43 -31q-2 -2 -8 -2 q-14 0 -20 12q4 58 4 174v977q0 92 -9.5 117.5t-54.5 52.5l-20 12q-8 5 -8 21zM305 279q0 -112 52.5 -179t154.5 -67q70 0 123 28t84 76.5t46 107.5t15 128q0 165 -82 270t-229 105q-86 0 -139 -33q-15 -11 -20 -34t-5 -83v-319z" />
<glyph unicode="c" horiz-adv-x="819" d="M74 379q0 85 30.5 165t89 146t156 106t219.5 40q106 0 183 -35q30 -26 30 -82q0 -29 -13.5 -52.5t-31.5 -23.5q-17 0 -28 14q-38 46 -92 77.5t-113 31.5q-115 0 -199 -88t-84 -242q0 -62 21.5 -122.5t61 -112t104 -83.5t143.5 -32q83 0 135 32t92 91q12 3 23.5 -6 t13.5 -23q-33 -72 -93.5 -121t-122.5 -68.5t-126 -19.5q-177 0 -288 112.5t-111 295.5z" />
<glyph unicode="d" horiz-adv-x="1042" d="M72 365q0 140 65.5 248.5t178 165.5t251.5 57q83 0 138 -19q12 0 12 29v309q0 92 -9.5 117.5t-54.5 52.5l-20 12q-7 5 -7 21t7 20q143 45 221 86q14 0 20 -12q-6 -183 -6 -254v-899q0 -137 10 -187.5t50 -50.5q23 0 88 21q11 -3 11 -31t-13 -35q-66 -9 -147.5 -28.5 t-123.5 -36.5q-22 0 -22 16v35q0 56 -4 64h-8q-73 -50 -131 -72.5t-127 -22.5q-167 0 -273 114.5t-106 279.5zM240 432q0 -149 81 -255.5t224 -106.5q42 0 87.5 16.5t69.5 40.5q15 15 15 76v403q0 47 -23 80q-26 36 -71 61t-101 25q-133 0 -207.5 -99t-74.5 -241z" />
<glyph unicode="e" horiz-adv-x="811" d="M72 373q0 94 30 178.5t83 147.5t130.5 100t167.5 37q127 0 209 -73.5t82 -170.5q0 -37 -8 -53q-8 -15 -121 -15h-379q-39 0 -47 -8t-8 -47q0 -163 91 -273t249 -110q55 0 99 21.5t89 78.5q15 4 25 -3t12 -21q-47 -96 -138.5 -143.5t-182.5 -47.5q-175 0 -279 115.5 t-104 286.5zM233 596q0 -10 15 -10h145q186 0 213 20q12 8 12 39q0 51 -38 90t-119 39q-85 0 -155.5 -61t-72.5 -117z" />
<glyph unicode="f" horiz-adv-x="593" d="M61 23q0 15 9 22l47 6q55 7 66.5 35.5t11.5 142.5v433q0 42 -5.5 50.5t-35.5 8.5h-72q-9 6 -10.5 18t4.5 21l88 43q31 15 31 41q0 212 63 360q21 48 51.5 90.5t75 82.5t107.5 63.5t135 23.5q84 0 142 -34.5t58 -88.5q0 -30 -23.5 -51.5t-53.5 -21.5q-29 0 -50 24 q-78 90 -163 90q-99 0 -146 -112q-45 -114 -45 -346v-60q0 -42 4.5 -49.5t30.5 -7.5h233q17 -15 10.5 -47.5t-24.5 -38.5h-219q-26 0 -30.5 -8.5t-4.5 -50.5v-433q0 -114 12 -144t66 -34l74 -6q10 -8 8.5 -27t-12.5 -24q-138 6 -224 6q-104 0 -196 -6q-13 6 -13 29z" />
<glyph unicode="g" horiz-adv-x="913" d="M57 -313q0 49 23 75q20 21 73 73t66 65q36 36 17 49q-61 15 -105.5 62t-44.5 100q0 12 31 34q48 31 108 95q21 25 21 39q-63 33 -108.5 95.5t-45.5 151.5q0 131 98 220.5t236 89.5q101 0 197 -41q50 -22 71 -27.5t54 -5.5h165q15 -6 15 -32q0 -5 -1 -12q-4 -37 -26 -40 h-147q4 -35 4 -105q0 -57 -18 -111t-55.5 -103.5t-107.5 -80t-163 -30.5q-15 0 -90 6q-91 -51 -91 -113q0 -37 37.5 -61.5t106.5 -24.5q33 0 115 3t129 3q41 0 74.5 -3.5t75 -17t69.5 -36.5t47.5 -66t19.5 -102q0 -108 -72 -198t-188.5 -139.5t-249.5 -49.5 q-90 0 -158.5 22.5t-106.5 59t-56.5 76t-18.5 80.5zM211 -260q0 -88 70.5 -145.5t203.5 -57.5t218 64.5t85 154.5q0 178 -233 178h-70q-141 0 -176 -22q-41 -26 -69.5 -71.5t-28.5 -100.5zM258 547q0 -106 55 -173t131 -67q81 0 124.5 58t43.5 155q0 111 -46.5 183.5 t-135.5 72.5q-75 0 -123.5 -63t-48.5 -166z" />
<glyph unicode="h" horiz-adv-x="1054" d="M42 23q0 15 9 22l51 6q55 6 66.5 34.5t11.5 143.5v926q0 92 -9 117.5t-54 52.5l-21 12q-8 5 -8 21t8 20q143 45 221 86q15 0 21 -12q-6 -183 -6 -254v-430q0 -34 8 -39q139 107 276 107t201 -73.5t64 -191.5v-342q0 -114 11.5 -143t65.5 -35l56 -6q9 -7 9 -22 q-1 -2 -1 -5q-2 -19 -12 -24q-111 6 -205 6q-109 0 -191 -6q-11 5 -12.5 24t8.5 27l41 6q24 4 37.5 10t22.5 14.5t12.5 32t4.5 47t1 74.5v293q0 101 -49 160t-145 59q-94 0 -160 -55q-29 -24 -36 -42t-7 -71v-344q0 -113 12 -142t66 -36l43 -6q10 -6 8.5 -26t-12.5 -25 q-91 6 -193 6t-201 -6q-13 6 -13 29z" />
<glyph unicode="i" horiz-adv-x="526" d="M71 23q0 15 9 22l43 6q55 7 66.5 35.5t11.5 142.5v359q0 62 -8 81t-48 46l-18 12q-6 6 -5.5 19.5t7.5 17.5q38 13 108 45.5t103 54.5q17 0 20 -12q-8 -144 -8 -254v-369q0 -113 12 -142t66 -36l43 -6q9 -7 9 -22v-5q-2 -19 -13 -24q-91 6 -193 6q-106 0 -192 -6 q-13 6 -13 29zM158 1167q0 50 31.5 80.5t78.5 30.5q45 0 74 -31.5t29 -75.5q0 -52 -31.5 -79t-77.5 -27t-75 30t-29 72z" />
<glyph unicode="j" horiz-adv-x="518" d="M-27 -504q73 37 121 92q111 129 111 484v516q0 62 -7.5 81t-47.5 46l-19 12q-6 6 -5.5 19.5t7.5 17.5q38 13 108 45.5t103 54.5q18 0 21 -12q-9 -162 -9 -254v-496q0 -215 -43 -319t-120 -183.5t-191 -150.5q-18 3 -26 17q-5 9 -5 18q0 6 2 12zM162 1169q0 50 31.5 79.5 t78.5 29.5q45 0 74 -31.5t29 -75.5q0 -51 -31.5 -78.5t-77.5 -27.5t-75 30t-29 74z" />
<glyph unicode="k" horiz-adv-x="987" d="M46 22q0 16 11 23l45 6q55 7 66.5 35.5t11.5 142.5v926q0 92 -9 117.5t-54 52.5l-21 12q-8 5 -8 21t8 20q143 45 221 86q15 0 21 -12q-6 -183 -6 -254v-702q0 -21 5.5 -26t31.5 -5q62 0 139 80l84 90q72 77 72 94q0 16 -46 21l-49 6q-13 4 -13 25t13 26h47q173 0 326 16 q10 -4 11.5 -24t-7.5 -27l-65 -12q-30 -6 -67.5 -27.5t-77 -55t-68 -60t-63 -61.5t-40.5 -40q-18 -17 -21 -27t7 -22q45 -60 163.5 -193.5t166.5 -179.5q36 -34 106 -45l29 -4q10 -6 10 -22v-5q-2 -20 -14 -24q-88 6 -195 6q-125 0 -213 -6q-12 6 -13.5 25.5t9.5 25.5l37 6 q51 7 51 21q0 17 -35 57l-219 254q-26 29 -63 29q-27 0 -33 -11t-6 -59v-113q0 -113 12 -142t66 -36l49 -6q10 -8 8.5 -27t-12.5 -24q-102 6 -199 6q-106 0 -197 -6q-13 6 -13 28z" />
<glyph unicode="l" horiz-adv-x="505" d="M46 23q0 15 9 22l47 6q55 7 66.5 35.5t11.5 142.5v926q0 92 -9 117.5t-54 52.5l-21 12q-8 5 -8 21t8 20q143 45 221 86q15 0 21 -12q-6 -183 -6 -254v-969q0 -113 12 -142t66 -36l49 -6q9 -7 9 -22v-5q-2 -19 -13 -24q-102 6 -199 6q-106 0 -197 -6q-13 6 -13 29z" />
<glyph unicode="m" horiz-adv-x="1611" d="M65 23q0 15 9 22l49 6q55 7 66.5 35.5t11.5 142.5v359q0 62 -8 81t-48 46l-18 12q-6 6 -5.5 19.5t7.5 17.5q40 14 108.5 46t96.5 54q16 0 22 -14q-4 -47 -4 -96q0 -9 6.5 -16t16.5 -7q149 105 272 105q75 0 124 -28t93 -93q20 -5 51 16q151 105 279 105q118 0 181 -71.5 t63 -182.5v-353q0 -113 12 -142t66 -36l49 -6q9 -7 9 -22v-5q-2 -19 -13 -24q-102 6 -199 6q-100 0 -186 -6q-11 5 -13 24t8 27l37 6q24 4 37.5 10t22.5 14.5t12.5 32t4.5 47t1 74.5v297q0 211 -190 211q-55 0 -101 -20.5t-69 -50.5q-19 -24 -25 -47t-6 -76v-314 q0 -113 12 -142t66 -36l43 -6q10 -8 8.5 -27t-12.5 -24q-92 6 -193 6t-186 -6q-11 5 -12.5 24t8.5 27l37 6q20 3 32 6.5t21.5 13t13.5 18t6.5 32.5t3 44t0.5 64v297q0 211 -188 211q-111 0 -172 -73q-31 -39 -31 -117v-318q0 -80 4.5 -111t19.5 -46t54 -21l37 -6 q10 -8 8.5 -27t-12.5 -24q-83 6 -187 6t-198 -6q-13 6 -13 29z" />
<glyph unicode="n" horiz-adv-x="1075" d="M71 23q0 15 9 22l43 6q55 7 66.5 35.5t11.5 142.5v359q0 62 -8 81t-48 46l-18 12q-6 6 -5.5 19.5t7.5 17.5q40 14 108.5 46t96.5 54q16 0 22 -14q-4 -47 -4 -96q0 -9 6.5 -16t16.5 -7q170 105 287 105q120 0 179.5 -71.5t59.5 -182.5v-353q0 -113 12 -142t66 -36l45 -6 q9 -7 9 -22q-1 -2 -1 -5q-2 -19 -12 -24q-92 6 -193 6q-107 0 -190 -6q-11 5 -12.5 24t8.5 27l39 6q24 4 37.5 10t22.5 14.5t12.5 32t4.5 47t1 74.5v306q0 93 -47 147.5t-146 54.5q-57 0 -104 -20.5t-70 -50.5q-19 -25 -25 -50.5t-6 -72.5v-314q0 -80 4.5 -111t19.5 -46 t54 -21l37 -6q10 -8 8.5 -27t-12.5 -24q-83 6 -187 6q-106 0 -192 -6q-13 6 -13 29z" />
<glyph unicode="o" horiz-adv-x="995" d="M72 393q0 191 126 317t310 126q175 0 295.5 -119t120.5 -305q0 -193 -120.5 -317t-311.5 -124q-180 0 -300 116.5t-120 305.5zM248 420q0 -98 27.5 -183.5t89 -144.5t147.5 -59q64 0 112 31t74 83.5t38 110t12 121.5q0 55 -8.5 108.5t-29 106t-50 92t-75.5 64t-102 24.5 q-104 0 -169.5 -94.5t-65.5 -259.5z" />
<glyph unicode="p" horiz-adv-x="1038" d="M44 -499q0 15 9 22l43 6q55 7 66.5 35.5t11.5 142.5v881q0 62 -7.5 81t-47.5 46l-19 12q-6 6 -5.5 19.5t7.5 17.5q130 57 203 110q19 0 25 -14q-8 -74 -8 -94q0 -27 18 -27q1 1 37 20t68.5 34t84.5 29t97 14q152 0 246 -108t94 -267q0 -214 -141 -352t-359 -138 q-73 0 -113 9q-15 -3 -21.5 -15.5t-6.5 -42.5v-215q0 -112 11.5 -139.5t65.5 -34.5l80 -10q10 -8 8.5 -27t-12.5 -24q-147 6 -229 6q-108 0 -193 -6q-13 6 -13 29zM326 207q0 -46 13.5 -71t47.5 -52q60 -45 148 -45q123 0 194.5 103t71.5 266q0 133 -73.5 231t-203.5 98 q-60 0 -107 -17.5t-67 -39.5q-24 -31 -24 -121v-352z" />
<glyph unicode="q" horiz-adv-x="1017" d="M72 373q0 144 68.5 251t178.5 159.5t244 52.5q94 0 170 -21q54 -14 72 -14q15 0 55 35q15 0 23 -19q-17 -69 -17 -248v-862q0 -111 12 -138t66 -36l60 -10q8 -7 8 -21v-6q-2 -19 -13 -24q-117 6 -208 6q-96 0 -213 -6q-11 5 -13 24t8 27l64 6q55 6 66.5 34.5t11.5 143.5 v266q0 30 -3.5 40t-15.5 10q-89 -52 -209 -52q-88 0 -160 26.5t-118 68.5t-78 96.5t-45.5 107t-13.5 103.5zM244 438q0 -170 89.5 -277.5t233.5 -107.5q105 0 133 33q15 18 15 82v305q0 153 -27 205q-24 41 -69 67.5t-107 26.5q-117 0 -192.5 -94.5t-75.5 -239.5z" />
<glyph unicode="r" horiz-adv-x="679" d="M75 23q0 15 9 22l39 6q24 4 37.5 10t22.5 14.5t12.5 32t4.5 47t1 74.5v359q0 62 -8 81t-48 46l-18 12q-6 6 -5.5 19.5t7.5 17.5q35 12 101.5 44t105.5 56q16 -3 16 -14v-119q0 -15 6 -18q49 40 76.5 60.5t71 41.5t78.5 21q39 0 65.5 -23t26.5 -59q0 -46 -28.5 -70.5 t-59.5 -24.5q-19 0 -45 15q-51 33 -90 33q-45 0 -74 -41q-27 -39 -27 -158v-279q0 -114 12.5 -144t69.5 -34l74 -6q10 -8 8.5 -27t-12.5 -24q-144 6 -228 6q-108 0 -188 -6q-13 6 -13 29z" />
<glyph unicode="s" horiz-adv-x="661" d="M61 240q8 9 24 10t24 -8q65 -211 217 -211q59 0 98 34t39 97q0 34 -13 62.5t-39 52t-48 38.5t-58 35q-100 57 -151.5 115t-51.5 137q0 109 79 171.5t200 62.5q60 0 112.5 -12t67.5 -25q33 -83 33 -166q-6 -11 -23.5 -13t-25.5 7q-27 70 -73 109.5t-107 39.5 q-60 0 -96 -34.5t-36 -90.5q0 -24 11 -47t22 -36.5t40 -34t39.5 -26.5l45.5 -26q48 -27 80 -49.5t64.5 -56t48.5 -76t16 -94.5q0 -111 -86.5 -172.5t-208.5 -61.5q-142 0 -219 62q-12 29 -20 93q-6 46 -6 86q0 14 1 28z" />
<glyph unicode="t" horiz-adv-x="628" d="M70 741q0 3 -1 5q0 10 5 18q92 28 131 63q49 46 86 121q4 2 12 2h11q16 -2 20 -12v-92q0 -28 5.5 -33.5t31.5 -5.5h227q17 -13 17 -42q0 -33 -15 -44h-231q-26 0 -31.5 -8t-5.5 -41v-383q0 -41 2.5 -70t11.5 -61t24.5 -51.5t43.5 -32.5t67 -13q27 0 56 11q8 3 19.5 10 t20.5 12.5t11 5.5q11 0 17 -12t3 -22q-33 -39 -88.5 -67t-126.5 -28q-64 0 -107.5 16.5t-65.5 49t-31 69.5t-9 87v469q0 42 -6 50.5t-37 8.5h-57q-8 6 -10 20z" />
<glyph unicode="u" horiz-adv-x="1048" d="M92 799q122 3 219 37q18 -3 21 -15q-6 -53 -6 -178v-342q0 -45 4.5 -79t17.5 -64.5t34 -50t54.5 -30.5t79.5 -11q42 0 87.5 16t78.5 45q41 38 41 119v336q0 34 -1 56t-6 39t-8 25.5t-15 17t-19 12t-27 11.5l-26 11q-11 6 -10.5 22.5t12.5 22.5q65 2 136 12.5t103 24.5 q16 -3 19 -15q-7 -68 -7 -178v-344q0 -130 11.5 -176.5t52.5 -46.5q32 0 80 10q10 -8 10 -30.5t-12 -28.5l-27.5 -5.5t-31 -6t-30.5 -6.5t-33.5 -7.5t-31 -7.5t-32.5 -9.5t-29 -10t-29 -11.5t-24 -12q-18 0 -25 14v84q0 29 -18 29q-50 -32 -77 -48t-89 -37.5t-117 -21.5 q-131 0 -189.5 64t-58.5 192v342q0 101 -8.5 127.5t-52.5 46.5l-25 11q-8 6 -8 19q0 21 12 26z" />
<glyph unicode="v" horiz-adv-x="884" d="M10 813q76 -6 193 -6q61 0 166 6q11 -6 11.5 -24.5t-9.5 -26.5l-25 -4q-46 -7 -53.5 -21.5t8.5 -60.5q59 -176 154 -391q27 -61 32 -66q14 10 39 78q10 25 58 148t59 153q37 92 37 127q0 25 -37 31l-47 6q-9 10 -7.5 27.5t11.5 23.5q94 -6 154 -6q58 0 143 6q9 -6 11 -24 q0 -3 1 -5q0 -14 -8 -22l-31 -4q-13 -2 -24.5 -6.5t-20.5 -9t-18.5 -15.5t-15.5 -18t-16.5 -25.5t-15 -28t-18 -36t-20.5 -39.5q-20 -38 -90.5 -202t-98.5 -235q-7 -19 -29.5 -73.5t-37.5 -94.5q-5 -8 -21 -8q-18 0 -26 8q-20 70 -78 213l-172 416q-3 7 -11 27.5t-11 27.5 t-11 23.5t-13 23t-14 17.5t-17.5 16t-20 10t-25.5 7l-41 6q-8 10 -8 25q0 21 14 26z" />
<glyph unicode="w" horiz-adv-x="1351" d="M4 813q95 -6 182 -6q96 0 179 6q12 -6 13.5 -24t-9.5 -25l-47 -8q-21 -3 -33.5 -11.5t-12.5 -17.5q0 -27 33 -106l127 -314q8 -20 17.5 -41.5t14.5 -33t5 -13.5q8 5 47 98l101 248q23 55 23 91q0 16 -5 28q-22 56 -94 72l-33 8q-10 9 -8 26.5t14 22.5q76 -6 170 -6 q90 0 195 6q13 -4 14.5 -23t-8.5 -26l-43 -8q-60 -12 -67 -26q-2 -4 -1 -10q0 -18 15 -58q22 -65 155 -383q21 -54 27 -58q8 8 29 58q40 88 139 362q20 59 20 88q0 21 -37 27l-51 8q-12 8 -10.5 26t12.5 23q88 -6 162 -6q65 0 133 6q12 -6 14 -24v-5q0 -14 -8 -20l-41 -8 q-35 -7 -55.5 -32t-54.5 -97q-86 -180 -193 -465q-55 -139 -69 -187q-11 -8 -27 -8q-15 0 -23 8q-39 122 -84 226l-98 235q-7 17 -18 42.5t-19.5 44t-9.5 18.5t-9 -17.5t-18.5 -41.5t-17.5 -42l-106 -256q-57 -136 -82 -209q-8 -8 -25 -8t-25 8q-7 24 -61 170l-188 463 q-34 83 -58.5 111t-64.5 37l-33 8q-8 7 -8 23q0 20 14 26z" />
<glyph unicode="x" horiz-adv-x="884" d="M15 24q0 16 10 21l47 8q51 8 102 62q24 25 94 121t88 118q14 18 15.5 27t-9.5 27l-184 260q-52 76 -123 88l-32 6q-8 6 -8 22q1 3 1 5q2 20 11 24q120 -6 178 -6q54 0 174 6q10 -6 10.5 -25t-8.5 -26l-31 -6q-40 -7 -42.5 -21t24.5 -51l98 -143q16 -24 27 -35 q9 7 118 174q25 40 22 53.5t-38 22.5l-24 6q-9 9 -6.5 28t14.5 23q70 -6 149 -6q92 0 150 6q12 -6 12.5 -25t-8.5 -26l-31 -6q-77 -16 -102 -35q-52 -43 -193 -234q-19 -25 -18.5 -36t20.5 -39l191 -269q36 -51 65.5 -72t69.5 -24l33 -2q8 -8 8 -23q-1 -3 -1 -5 q-2 -19 -11 -23q-114 6 -203 6q-96 0 -195 -6q-12 4 -14.5 24t8.5 27l59 6q43 4 50 19t-15 43l-106 153q-36 53 -45 60q-17 -17 -37 -50l-86 -135q-32 -48 -32 -66l1 -1q0 -18 37 -23l35 -6q9 -7 7.5 -27t-11.5 -24q-76 6 -152 6q-69 0 -149 -6q-14 7 -14 30z" />
<glyph unicode="y" horiz-adv-x="897" d="M2 789q2 20 14 24q99 -6 195 -6q79 0 178 6q12 -4 13.5 -24t-9.5 -27l-51 -10q-45 -9 -45 -27q0 -21 59 -193l66 -188q51 -141 59 -145q13 9 76 151l70 162q71 167 71 205q0 27 -49 35l-63 10q-11 7 -9.5 27t13.5 24q99 -6 180 -6q70 0 156 6q14 -7 14 -28q0 -15 -10 -23 l-35 -6q-48 -9 -82.5 -54.5t-91.5 -162.5l-115 -236q-150 -302 -336 -717q-43 -96 -131 -96q-43 0 -66.5 24.5t-23.5 63.5q0 40 23 61t59 21h39q45 0 68 37q81 126 118 227q21 56 21 88q0 29 -6.5 55t-28.5 87l-160 438q-34 93 -50 116q-25 35 -71 44l-51 10q-8 6 -8 22v5z " />
<glyph unicode="z" horiz-adv-x="772" d="M43 604q3 43 25 124t43 116q6 4 12 4l12 -4q4 -25 29.5 -31t116.5 -6h290q94 0 125 6q14 -7 11 -20q-64 -88 -152 -234l-248 -416q-27 -46 -27 -63q0 -4 1 -6q6 -14 65 -13h70q55 0 88.5 2t80 17t72.5 43q24 26 66 119q10 6 25.5 2.5t19.5 -15.5q-14 -75 -35 -140.5 t-41 -94.5q-102 6 -229 6h-184q-179 0 -216 -6q-12 6 -12 20q30 36 90.5 128t106.5 173l217 369q22 43 17 52t-36 9h-141q-104 0 -141 -30q-38 -29 -74 -119q-7 -9 -25 -6.5t-22 14.5z" />
<glyph unicode="{" horiz-adv-x="655" d="M130 548.5q0 13.5 7 22.5q49 3 83.5 16t52.5 28.5t28 39.5t12 42t2 44q0 65 -15 210t-15 212q0 258 290 258q7 -7 7 -20t-7 -21q-54 -9 -90.5 -29t-53 -49t-22.5 -56t-6 -62q0 -66 19.5 -205.5t19.5 -210.5q0 -176 -153 -215v-8q153 -39 153 -215q0 -54 -18 -211 q-2 -19 -8.5 -64t-9.5 -77.5t-3 -63.5q0 -27 3 -49t14 -47.5t29 -44t50 -34t76 -22.5q7 -6 7 -19.5t-7 -21.5q-290 0 -290 258q0 67 15 212t15 210q0 26 -2 44t-12 42t-28 39.5t-52.5 28.5t-83.5 16q-7 9 -7 22.5z" />
<glyph unicode="|" horiz-adv-x="489" d="M184 -512v2048h121v-2048h-121z" />
<glyph unicode="}" horiz-adv-x="655" d="M72 -303q0 14 8 20q44 7 76 22.5t50 34t29 44t14 47.5t3 49q0 31 -3 63.5t-9.5 77.5t-8.5 64q-18 157 -18 211q0 89 37.5 142t116.5 73v8q-79 20 -116.5 73t-37.5 142q0 71 19.5 210.5t19.5 205.5q0 27 -3 49t-14 47t-29 43.5t-50 34t-76 22.5q-8 7 -8 20t8 21 q291 0 291 -258q0 -67 -15.5 -212t-15.5 -210q0 -26 2 -44t12 -42t28 -39.5t52.5 -28.5t83.5 -16q8 -9 8 -22.5t-8 -22.5q-49 -3 -83.5 -16t-52.5 -28.5t-28 -39.5t-12 -42t-2 -44q0 -65 15.5 -210t15.5 -212q0 -258 -291 -258q-8 7 -8 21z" />
<glyph unicode="~" d="M156 264q44 113 92 164q43 43 117 43h253q76 0 109.5 26t73.5 107q20 9 40.5 1t26.5 -30q-49 -126 -94 -167q-44 -39 -115 -39h-253q-76 0 -109.5 -26t-73.5 -107q-20 -9 -40.5 -1.5t-26.5 29.5z" />
<glyph unicode="&#xa1;" horiz-adv-x="450" d="M111 686q0 53 32.5 87t81.5 34q51 0 83 -35t32 -86q0 -50 -31.5 -81.5t-83.5 -31.5q-46 0 -80 31t-34 82zM125 -485q0 29 14 182l60 661q9 9 27 9t26 -9l59 -661q15 -163 15 -182q0 -36 -23.5 -48t-77.5 -12t-77 12t-23 48z" />
<glyph unicode="&#xa2;" d="M133 625q0 132 61.5 232.5t163 155t228.5 64.5l20 176q14 7 34 7t34 -7l-21 -172q63 0 164 -22q45 -39 45 -105q0 -29 -8 -50t-16 -21q-14 0 -29 18q-67 80 -166 103l-82 -682q37 -9 82 -9q56 0 104 19t74 40.5t58 55.5q13 3 23.5 -5.5t8.5 -19.5q-114 -186 -362 -186 l-25 -209q-13 -8 -34 -8t-33 8l26 215q-155 19 -252.5 125.5t-97.5 276.5zM274 690q0 -69 22.5 -135t75 -125.5t126.5 -89.5l80 670q-131 2 -217.5 -85t-86.5 -235z" />
<glyph unicode="&#xa3;" d="M31 8q0 53 98 133q73 63 107 171.5t34 275.5q0 18 -5 23t-27 5h-168q-12 9 -12 33t12 33h166q21 0 25.5 3t2.5 15q-2 35 -2 121q0 213 122.5 351.5t313.5 138.5q34 0 64 -7t52 -25.5t22 -45.5q0 -29 -22 -57.5t-38 -28.5q-11 0 -31 14q-27 21 -47.5 34t-44 21.5 t-47.5 8.5q-36 0 -69.5 -18t-61.5 -52.5t-44.5 -90.5t-16.5 -126q0 -61 14 -225q2 -20 8.5 -25.5t32.5 -5.5h301q14 -9 14 -33.5t-14 -32.5h-299q-28 0 -35.5 -4.5t-7.5 -23.5q0 -77 -14.5 -142t-42.5 -116t-61 -90t-77 -76l3 -4q75 10 163 -2q30 -4 81.5 -23.5t97.5 -40 t99.5 -37t90.5 -16.5q41 0 62 21t22 53.5t-4 72.5q-6 35 8.5 53.5t40.5 18.5q32 0 53 -27t21 -65q0 -82 -97 -155.5t-225 -73.5q-44 0 -93.5 18t-129.5 61q-140 76 -211 76q-70 0 -70 -67q0 -20 -28.5 -38t-48.5 -18q-37 0 -37 37z" />
<glyph unicode="&#xa4;" d="M72 666q0 155 94 270l-92 92q4 31 33.5 59t66.5 39l84 -104q114 82 256 82t256 -82l84 104q37 -11 66.5 -39t33.5 -59l-92 -92q94 -115 94 -270q0 -156 -94 -271l92 -92q-4 -31 -33.5 -59t-66.5 -39l-84 104q-114 -82 -256 -82t-256 82l-84 -104q-37 11 -66.5 39 t-33.5 59l92 92q-94 115 -94 271zM188 666q0 -145 98 -244.5t228 -99.5t228 100t98 244q0 141 -98.5 242.5t-227.5 101.5q-132 0 -229 -101.5t-97 -242.5z" />
<glyph unicode="&#xa5;" d="M6.5 1271q0.5 15 13.5 21q76 -6 222 -6q118 0 194 6q10 -4 11 -20t-7 -23l-78 -14q-40 -8 -40 -31q0 -18 71 -145l105 -187q8 -15 18.5 -34.5t17 -32t13.5 -24t11.5 -17.5t6.5 -6q20 0 64 80l78 143q106 200 106 217t-10 24.5t-37 12.5l-78 14q-9 7 -7.5 23t13.5 20 q91 -6 193 -6q76 0 153 6q10 -6 11 -20t-7 -23l-49 -10q-18 -4 -35.5 -16t-31 -25.5t-34 -44t-32.5 -50t-39 -65.5l-182 -313h279q10 -9 10 -33t-10 -33h-306v-165h306q10 -9 10 -33t-10 -33h-310v-176q0 -125 14 -161t74 -42l76 -8q9 -7 7.5 -25t-11.5 -22q-111 6 -238 6 q-118 0 -229 -6q-10 4 -11.5 22t7.5 25l76 8q62 7 75 42t13 161v176h-311q-10 9 -10 33t10 33h307v165h-307q-10 9 -10 33t10 33h278l-209 354q-53 91 -80 119t-84 41l-43 10q-8 7 -7.5 22z" />
<glyph unicode="&#xa6;" horiz-adv-x="489" d="M184 -358v716h121v-716h-121zM184 666v716h121v-716h-121z" />
<glyph unicode="&#xa7;" horiz-adv-x="1036" d="M102 848q0 91 44.5 187t117.5 173t175 126.5t208 49.5q78 0 118 -30t40 -64q0 -23 -20 -44t-48 -21q-36 0 -57 16q-86 59 -168 59q-51 0 -86 -33.5t-35 -88.5q0 -74 59 -149.5t232 -233.5q131 -121 191.5 -233.5t60.5 -244.5q0 -75 -26 -155.5t-76.5 -154.5t-117 -132.5 t-154 -93.5t-181.5 -35q-72 0 -118 29t-46 73q0 29 20 51.5t52 22.5q30 0 51 -18q87 -72 174 -72q51 0 96 35t45 92q0 20 -5 41t-18.5 45t-24 43t-34 47.5t-35.5 44t-43 47.5t-41 42l-44 44l-39 39q-51 51 -84.5 87.5t-71.5 87.5t-60 97t-36.5 104t-14.5 120zM203 938 q0 -44 6.5 -81t29.5 -97.5t79 -137t143 -163.5q160 -161 217 -255t57 -214q57 51 78 108.5t21 128.5q0 132 -60.5 237t-189.5 228q-166 159 -220.5 249.5t-54.5 215.5q-54 -45 -80 -95.5t-26 -123.5z" />
<glyph unicode="&#xa8;" horiz-adv-x="737" d="M90 1149q-2 44 27 75t73 31q43 0 73 -30t30 -68q0 -47 -29.5 -77.5t-73.5 -30.5q-43 0 -71 26.5t-29 73.5zM444 1151q0 43 30.5 73.5t74.5 30.5q42 0 70 -29.5t28 -66.5q0 -48 -27 -79t-71 -31t-74 28t-31 74z" />
<glyph unicode="&#xa9;" horiz-adv-x="1617" d="M92 676q0 145 54.5 275.5t149 225.5t228.5 151t285 56t285 -56t228.5 -151t149 -225.5t54.5 -275.5q0 -194 -92.5 -356t-257.5 -257.5t-367 -95.5t-367 95.5t-257.5 257.5t-92.5 356zM209 678q0 -175 78.5 -319.5t216.5 -228t305 -83.5t305 83.5t216.5 228t78.5 319.5 q0 174 -78.5 317.5t-216.5 226.5t-305 83t-305 -83t-216.5 -226.5t-78.5 -317.5zM420 672q0 182 131.5 296.5t327.5 114.5q50 0 104 -7.5t94 -15.5t49 -9q4 -27 8 -56.5t8.5 -68.5t8.5 -66q-6 -10 -21 -12t-22 6q-55 174 -242 174q-140 0 -216.5 -97.5t-76.5 -246.5 q0 -161 84.5 -259.5t221.5 -98.5q166 0 251 194q9 8 22 6t19 -12q-3 -42 -20 -104t-35 -93q-153 -47 -250 -47q-109 0 -196.5 34.5t-140.5 92t-81 128t-28 147.5z" />
<glyph unicode="&#xaa;" horiz-adv-x="679" d="M68 635q0 38 22.5 68.5t56.5 44.5q55 22 133 48l87 29q28 10 36.5 21t8.5 31v24q0 67 -22 105t-87 38q-35 0 -60.5 -15.5t-31.5 -47.5q-7 -44 -18 -53q-15 -10 -48 -22.5t-45 -12.5t-20 7.5t-8 19.5q0 46 61 94q45 36 110.5 64t125.5 28q96 0 133.5 -46t34.5 -130 l-11 -250q-2 -55 13.5 -85t56.5 -30q28 0 59 21q12 0 17.5 -10t-0.5 -19q-30 -32 -70.5 -48.5t-77.5 -16.5q-51 0 -94 40q-19 19 -31 19q-11 0 -32 -12q-90 -47 -144 -47q-77 0 -116 40.5t-39 102.5zM203 651q0 -32 22.5 -60t69.5 -28q57 0 90 33q16 19 16 51l5 107 q1 26 -15.5 27t-56.5 -15q-2 -1 -18 -6t-20.5 -7t-19 -7.5t-19.5 -9.5t-16.5 -11t-16 -14t-10.5 -16t-8.5 -20t-2.5 -24z" />
<glyph unicode="&#xab;" horiz-adv-x="774" d="M106 389q-26 34 0 64q46 55 244 307q26 -4 35 -27l-143 -287q-11 -24 0 -49l143 -291q-9 -20 -35 -26q-23 29 -74.5 96t-91 117t-78.5 96zM403 389q-26 34 0 64q46 55 244 307q26 -4 35 -27l-143 -287q-11 -24 0 -49l143 -291q-9 -20 -35 -26q-23 29 -74.5 96t-91 117 t-78.5 96z" />
<glyph unicode="&#xac;" d="M68 524v101h888v-523h-120v422h-768z" />
<glyph unicode="&#xad;" horiz-adv-x="655" d="M66 410q0 32 16 51l477 45q31 -19 31 -66q0 -31 -17 -51l-477 -45q-30 23 -30 66z" />
<glyph unicode="&#xae;" horiz-adv-x="655" d="M61 1126q0 107 78.5 183.5t188.5 76.5t188 -76.5t78 -183.5t-78 -183.5t-188 -76.5t-188.5 76.5t-78.5 183.5zM125 1126q0 -89 60 -152t143 -63t142.5 63t59.5 152q0 90 -59 152.5t-143 62.5t-143.5 -62.5t-59.5 -152.5zM208.5 1014q-0.5 9 2.5 10q22 5 26.5 11.5 t4.5 33.5v117q0 38 -23 41h-8q-9 18 2 22q86 4 115 4q102 0 102 -69q0 -20 -11.5 -35.5t-25.5 -22.5q-6 -3 0 -14q16 -35 22.5 -47.5t19 -27t28.5 -19.5q3 0 3 -6t-3 -8q-15 -3 -29 -3q-51 0 -76 43q-6 9 -15.5 27.5t-12.5 24.5q-6 12 -19 12q-12 0 -12 -10v-29 q0 -8 0.5 -13t0.5 -9t2 -6.5t3 -4.5t5 -3.5t5.5 -2.5t8.5 -3t10 -3q3 -2 3 -10t-3 -10q-9 0 -29 1t-33 1q-12 0 -31.5 -1t-27.5 -1q-4 1 -4.5 10zM299 1147q0 -10 3.5 -12t21.5 -2q22 0 31.5 12.5t9.5 28.5q0 24 -10.5 37.5t-28.5 13.5t-22.5 -3.5t-4.5 -13.5v-61z" />
<glyph unicode="&#xaf;" horiz-adv-x="737" d="M145 1131.5q0 36.5 17 58.5h418q14 -22 14 -58.5t-14 -58.5h-418q-17 22 -17 58.5z" />
<glyph unicode="&#xb0;" horiz-adv-x="618" d="M61 1073q0 105 72 171.5t176 66.5t176 -66.5t72 -171.5q0 -110 -71 -173.5t-177 -63.5t-177 63.5t-71 173.5zM166 1073q0 -77 40.5 -125.5t102.5 -48.5t103 48.5t41 125.5t-41 125.5t-103 48.5t-102.5 -48.5t-40.5 -125.5z" />
<glyph unicode="&#xb1;" d="M119 0v100h788v-100h-788zM119 520v101h334v333h120v-333h334v-101h-334v-348h-120v348h-334z" />
<glyph unicode="&#xb2;" horiz-adv-x="737" d="M59 655q0 13 4 19q87 54 213 180q189 189 189 340q0 79 -42 125.5t-112 46.5q-108 0 -184 -129q-12 -7 -25.5 -0.5t-13.5 18.5q41 95 115 145t170 50q111 0 176 -58.5t65 -152.5q0 -67 -34.5 -132t-120.5 -151l-115 -114q-43 -43 -56.5 -58.5t-13.5 -23.5q0 -17 29 -17 h146q81 0 122 13.5t72 60.5q26 11 39 -14q-9 -21 -22 -51.5t-20.5 -48t-18 -35.5t-19.5 -27q-102 4 -231 4h-148q-91 0 -153 -4q-11 11 -11 14z" />
<glyph unicode="&#xb3;" horiz-adv-x="737" d="M86 645q0 28 19.5 47t48.5 19q34 0 67 -54q22 -36 66 -36q32 0 71 17t76 47t61.5 80t24.5 109q0 76 -42 129.5t-128 53.5q-83 0 -147 -60q-38 19 -27 56q159 65 217 104q64 45 64 115q0 51 -31.5 79.5t-77.5 28.5q-101 0 -174 -118q-28 -3 -35 22q39 77 108.5 121.5 t155.5 44.5q87 0 142 -43t55 -102q0 -48 -32.5 -86.5t-116.5 -77.5q-7 -9 -2 -15t18 -6q82 0 141.5 -53t59.5 -141q0 -146 -142 -252q-75 -55 -155.5 -82t-139.5 -27q-60 0 -102.5 19t-42.5 61z" />
<glyph unicode="&#xb4;" horiz-adv-x="737" d="M272 977l177 334q26 49 49 49t60.5 -30t37.5 -54q0 -22 -33 -55l-256 -267q-11 -2 -22.5 5.5t-12.5 17.5z" />
<glyph unicode="&#xb6;" d="M121 657q0 221 150.5 335t418.5 114q190 0 248 -10q9 -6 9 -21.5t-9 -21.5l-80 -15q-76 -13 -92 -34t-16 -101v-950q0 -60 -4.5 -110t-20 -104.5t-41 -92t-70.5 -62t-106 -24.5q-71 0 -125.5 36.5t-54.5 112.5q0 41 19.5 69t39.5 38q33 0 66 -19.5t39 -42.5q-1 -1 -4 -5 t-4.5 -5.5t-5 -6t-5 -8t-4 -9t-3.5 -10.5t-2 -11.5t-1 -13.5q0 -29 19.5 -46.5t47.5 -17.5q20 0 40 11t42 37.5t36 81t14 130.5v289q0 38 -10.5 52t-33.5 14q-212 0 -354.5 116t-142.5 305z" />
<glyph unicode="&#xb7;" horiz-adv-x="512" d="M141 416q0 52 32.5 86.5t82.5 34.5q51 0 83 -35t32 -86q0 -50 -31.5 -81.5t-83.5 -31.5q-46 0 -80.5 31.5t-34.5 81.5z" />
<glyph unicode="&#xb8;" horiz-adv-x="737" d="M219 -381q0 17 12.5 32t32.5 15q19 0 51 -26.5t43 -26.5q20 0 35 13.5t15 43.5q0 34 -32.5 68t-80.5 53v10l123 199h63l-69 -113q-14 -25 16 -43q84 -57 84 -129q0 -67 -57.5 -113t-130.5 -46q-50 0 -77.5 17.5t-27.5 45.5z" />
<glyph unicode="&#xb9;" horiz-adv-x="737" d="M176.5 1358.5q-0.5 13.5 7.5 19.5q27 4 54.5 10.5t47.5 11.5t45.5 13.5l37.5 12.5t36 13t29 11q15 0 15 -10q-5 -54 -5 -150v-469q0 -81 13 -103.5t73 -29.5l35 -4q8 -6 7.5 -22.5t-9.5 -20.5q-122 4 -188 4t-180 -4q-9 4 -9.5 20.5t7.5 22.5l34 4q60 7 73 29.5t13 103.5 v396q0 63 -11 87.5t-52 28.5l-64 6q-9 6 -9.5 19.5z" />
<glyph unicode="&#xba;" horiz-adv-x="792" d="M66 791q0 136 96 225.5t241 89.5q139 0 231.5 -85t92.5 -216q0 -137 -92.5 -225t-243.5 -88q-143 0 -234 83.5t-91 215.5zM217 811q0 -67 19 -125.5t63.5 -99.5t106.5 -41q46 0 80.5 22t53 58t27 75.5t8.5 81.5q0 44 -10.5 89.5t-31.5 87t-59 68t-87 26.5q-72 0 -121 -68 t-49 -174z" />
<glyph unicode="&#xbb;" horiz-adv-x="774" d="M92 106l144 291q11 25 0 49l-144 287q9 23 35 27q198 -252 244 -307q26 -30 0 -64q-39 -46 -78.5 -96t-91 -117t-74.5 -96q-26 6 -35 26zM389 106l143 291q11 25 0 49l-143 287q9 23 35 27q198 -252 244 -307q26 -30 0 -64q-39 -46 -78.5 -96t-91 -117t-74.5 -96 q-26 6 -35 26z" />
<glyph unicode="&#xbc;" horiz-adv-x="1597" d="M88.5 1219.5q-0.5 13.5 7.5 19.5q27 4 54.5 10.5t47.5 11.5t45.5 13.5l37.5 12.5t36 13t29 11q14 0 14 -11q-4 -43 -4 -149v-469q0 -81 13 -103.5t73 -29.5l35 -4q8 -6 7.5 -22.5t-9.5 -20.5q-122 4 -188 4q-67 0 -181 -4q-9 4 -9.5 20.5t7.5 22.5l35 4q60 7 73 29.5 t13 103.5v395q0 63 -11 88t-52 29l-64 6q-9 6 -9.5 19.5zM283 -29q599 910 893 1368q43 0 63 -47q-455 -685 -901 -1374q-25 0 -39 14.5t-16 38.5zM819 258q0 17 19 41l436 561q19 25 43 25q45 0 45 -11q0 -4 -4 -12l-422 -540q-10 -19 -3.5 -22t40.5 -3h184q25 0 31 5.5 t6 27.5v223q0 18 12 25q40 22 94 22q16 0 19.5 -8.5t3.5 -30.5v-235q0 -19 5.5 -24t25.5 -5h76q12 -7 12 -28.5t-12 -30.5h-68q-27 0 -33 -5.5t-6 -27.5v-29q0 -90 10 -108.5t70 -24.5l37 -4q6 -9 5.5 -24t-9.5 -19q-86 4 -176 4q-129 0 -183 -4q-9 4 -10.5 19t6.5 24l37 4 q61 7 72.5 27t11.5 106v25q0 24 -6 30.5t-33 6.5h-317q-8 0 -13.5 5.5t-5.5 14.5z" />
<glyph unicode="&#xbd;" horiz-adv-x="1597" d="M103.5 1219.5q-0.5 13.5 7.5 19.5q91 14 249 72q15 0 15 -11q-4 -43 -4 -149v-469q0 -81 13 -103.5t73 -29.5l35 -4q8 -6 7 -22.5t-10 -20.5q-122 4 -188 4t-180 -4q-9 4 -9.5 20.5t7.5 22.5l35 4q60 7 73 29.5t13 103.5v395q0 63 -11.5 88t-52.5 29l-63 6 q-9 6 -9.5 19.5zM266 -29q599 910 893 1368q44 0 64 -47q-455 -685 -901 -1374q-26 0 -40 14.5t-16 38.5zM909 10q0 13 4 19q87 54 213 180q189 189 189 340q0 79 -42 125.5t-112 46.5q-108 0 -184 -129q-12 -7 -25.5 -0.5t-13.5 18.5q41 95 115 145t170 50q111 0 176 -58.5 t65 -152.5q0 -67 -34.5 -132t-120.5 -151l-115 -114q-43 -43 -56.5 -58.5t-13.5 -23.5q0 -17 29 -17h145q81 0 122.5 13.5t72.5 60.5q26 11 39 -14q-9 -21 -22 -51.5t-20.5 -48t-18 -35.5t-19.5 -27q-102 4 -231 4h-148q-91 0 -153 -4q-11 11 -11 14z" />
<glyph unicode="&#xbe;" horiz-adv-x="1597" d="M76 506q0 28 19 46.5t48 18.5q36 0 68 -53q23 -37 65 -37q32 0 71.5 17t76 47.5t61.5 80.5t25 109q0 76 -42 129.5t-128 53.5q-83 0 -147 -60q-38 19 -27 55q155 63 217 105q63 44 63 115q0 51 -31 79.5t-77 28.5q-100 0 -174 -119q-28 -3 -35 23q39 77 108.5 121.5 t155.5 44.5t141.5 -43.5t55.5 -102.5q0 -48 -32.5 -86.5t-117.5 -77.5q-7 -9 -1.5 -14.5t18.5 -5.5q82 0 141 -53t59 -142q0 -146 -141 -251q-75 -55 -155.5 -82t-139.5 -27q-60 0 -102.5 19t-42.5 61zM354 -29q599 910 893 1368q44 0 64 -47q-455 -685 -901 -1374 q-26 0 -40 14.5t-16 38.5zM860 258q0 17 19 41l436 561q19 25 43 25q45 0 45 -11q0 -4 -4 -12l-422 -540q-11 -19 -4 -22t41 -3h184q25 0 31 5.5t6 27.5v223q0 18 12 25q40 22 94 22q16 0 19.5 -8.5t3.5 -30.5v-235q0 -19 5.5 -24t25.5 -5h75q12 -7 12 -28.5t-12 -30.5h-67 q-27 0 -33 -5.5t-6 -27.5v-29q0 -90 10 -108.5t70 -24.5l37 -4q6 -9 5.5 -24t-9.5 -19q-86 4 -177 4q-128 0 -182 -4q-9 4 -10.5 19t6.5 24l37 4q61 7 72.5 27t11.5 106v25q0 24 -6 30.5t-33 6.5h-317q-8 0 -13.5 5.5t-5.5 14.5z" />
<glyph unicode="&#xbf;" horiz-adv-x="657" d="M92 -127q0 76 24.5 122.5t53.5 61.5l162 86q71 38 71 90q0 37 -20 119q6 12 20 15t23 -5q27 -44 50.5 -102.5t23.5 -99.5q0 -30 -8 -53t-25.5 -40.5t-33.5 -28.5t-44 -26l-100 -53q-113 -59 -113 -149q0 -80 45 -125q40 -40 94.5 -53t143.5 -13q18 0 42.5 -25.5 t24.5 -60.5q0 -32 -22 -55t-60 -23q-81 0 -163 58.5t-135.5 156.5t-53.5 203zM287 686q0 53 32.5 87t81.5 34q51 0 83 -35t32 -86q0 -50 -31.5 -81.5t-83.5 -31.5q-46 0 -80 31t-34 82z" />
<glyph unicode="&#xc0;" horiz-adv-x="1275" d="M-52 18.5q-2 18.5 7 26.5l68 6q85 7 122 101q11 28 41 101t66 163.5t74 191.5l209 553q41 106 34 146q55 16 107 77q26 0 31 -18q30 -98 90 -274l280 -824q44 -131 75.5 -170t98.5 -47l56 -6q10 -8 9 -26t-9 -25q-126 6 -248 6q-59 0 -236 -6q-12 6 -13.5 25t9.5 26l60 6 q71 7 71 37q0 29 -26 109l-90 278q-11 34 -24.5 42.5t-59.5 8.5h-310q-39 0 -53.5 -8.5t-24.5 -40.5l-71 -215q-45 -134 -45 -170q0 -20 12 -29t47 -12l68 -6q11 -7 10 -26t-14 -25q-29 2 -213 6q-32 0 -197 -6q-9 6 -11 24.5zM342 1626q-17 34 16 82q32 49 54 49 q14 0 55 -26l289 -236q4 -16 -3 -31t-18 -18l-342 147q-42 17 -51 33zM422 615q6 -7 49 -7h252q44 0 51.5 11.5t-6.5 52.5l-111 334q-32 97 -47 129h-4q-9 -15 -49 -121l-129 -357q-12 -35 -6 -42z" />
<glyph unicode="&#xc1;" horiz-adv-x="1275" d="M-52 18.5q-2 18.5 7 26.5l68 6q85 7 122 101q11 28 41 101t66 163.5t74 191.5l209 553q41 106 34 146q55 16 107 77q26 0 31 -18q30 -98 90 -274l280 -824q44 -131 75.5 -170t98.5 -47l56 -6q10 -8 9 -26t-9 -25q-126 6 -248 6q-59 0 -236 -6q-12 6 -13.5 25t9.5 26l60 6 q71 7 71 37q0 29 -26 109l-90 278q-11 34 -24.5 42.5t-59.5 8.5h-310q-39 0 -53.5 -8.5t-24.5 -40.5l-71 -215q-45 -134 -45 -170q0 -20 12 -29t47 -12l68 -6q11 -7 10 -26t-14 -25q-29 2 -213 6q-32 0 -197 -6q-9 6 -11 24.5zM422 615q6 -7 49 -7h252q44 0 51.5 11.5 t-6.5 52.5l-111 334q-32 97 -47 129h-4q-9 -15 -49 -121l-129 -357q-12 -35 -6 -42zM524 1485l289 235q42 27 55 27t30 -12t28 -35q26 -51 14 -84q-14 -18 -53 -33l-342 -147q-11 3 -18 18t-3 31z" />
<glyph unicode="&#xc2;" horiz-adv-x="1275" d="M-52 18.5q-2 18.5 7 26.5l68 6q85 7 122 101q11 28 41 101t66 163.5t74 191.5l209 553q41 106 34 146q55 16 107 77q26 0 31 -18q30 -98 90 -274l280 -824q44 -131 75.5 -170t98.5 -47l56 -6q10 -8 9 -26t-9 -25q-126 6 -248 6q-59 0 -236 -6q-12 6 -13.5 25t9.5 26l60 6 q71 7 71 37q0 29 -26 109l-90 278q-11 34 -24.5 42.5t-59.5 8.5h-310q-39 0 -53.5 -8.5t-24.5 -40.5l-71 -215q-45 -134 -45 -170q0 -20 12 -29t47 -12l68 -6q11 -7 10 -26t-14 -25q-29 2 -213 6q-32 0 -197 -6q-9 6 -11 24.5zM373 1468l250 236q41 41 86 0l249 -236 q0 -14 -7.5 -27t-16.5 -14l-238 121q-22 10 -32.5 10t-32.5 -10l-232 -121q-12 0 -19 13t-7 28zM422 615q6 -7 49 -7h252q44 0 51.5 11.5t-6.5 52.5l-111 334q-32 97 -47 129h-4q-9 -15 -49 -121l-129 -357q-12 -35 -6 -42z" />
<glyph unicode="&#xc3;" horiz-adv-x="1275" d="M-52 18.5q-2 18.5 7 26.5l68 6q85 7 122 101q11 28 41 101t66 163.5t74 191.5l209 553q41 106 34 146q55 16 107 77q26 0 31 -18q30 -98 90 -274l280 -824q44 -131 75.5 -170t98.5 -47l56 -6q10 -8 9 -26t-9 -25q-126 6 -248 6q-59 0 -236 -6q-12 6 -13.5 25t9.5 26l60 6 q71 7 71 37q0 29 -26 109l-90 278q-11 34 -24.5 42.5t-59.5 8.5h-310q-39 0 -53.5 -8.5t-24.5 -40.5l-71 -215q-45 -134 -45 -170q0 -20 12 -29t47 -12l68 -6q11 -7 10 -26t-14 -25q-29 2 -213 6q-32 0 -197 -6q-9 6 -11 24.5zM391 1395q6 32 31 91.5t49 80.5q24 27 48.5 37 t60.5 10h125q66 0 95.5 15t67.5 69q9 7 20 4t15 -14q-9 -42 -33 -90.5t-47 -69.5q-22 -20 -44.5 -26.5t-59.5 -6.5h-115q-69 0 -104 -24t-68 -85q-9 -6 -23 -3.5t-18 12.5zM422 615q6 -7 49 -7h252q44 0 51.5 11.5t-6.5 52.5l-111 334q-32 97 -47 129h-4q-9 -15 -49 -121 l-129 -357q-12 -35 -6 -42z" />
<glyph unicode="&#xc4;" horiz-adv-x="1275" d="M-52 18.5q-2 18.5 7 26.5l68 6q85 7 122 101q11 28 41 101t66 163.5t74 191.5l209 553q41 106 34 146q55 16 107 77q26 0 31 -18q30 -98 90 -274l280 -824q44 -131 75.5 -170t98.5 -47l56 -6q10 -8 9 -26t-9 -25q-126 6 -248 6q-59 0 -236 -6q-12 6 -13.5 25t9.5 26l60 6 q71 7 71 37q0 29 -26 109l-90 278q-11 34 -24.5 42.5t-59.5 8.5h-310q-39 0 -53.5 -8.5t-24.5 -40.5l-71 -215q-45 -134 -45 -170q0 -20 12 -29t47 -12l68 -6q11 -7 10 -26t-14 -25q-29 2 -213 6q-32 0 -197 -6q-9 6 -11 24.5zM358 1528q-5 45 25 79.5t76 34.5 q45 0 74.5 -34t29.5 -76q0 -46 -29 -77.5t-75 -31.5q-48 0 -74.5 26.5t-26.5 78.5zM422 615q6 -7 49 -7h252q44 0 51.5 11.5t-6.5 52.5l-111 334q-32 97 -47 129h-4q-9 -15 -49 -121l-129 -357q-12 -35 -6 -42zM754 1528q0 46 30 80t76 34q45 0 71.5 -33.5t26.5 -76.5 q0 -46 -26 -77.5t-72 -31.5q-47 0 -76 27t-30 78z" />
<glyph unicode="&#xc5;" horiz-adv-x="1275" d="M-52 18.5q-2 18.5 7 26.5l68 6q85 7 122 101q11 28 41 101t66 163.5t74 191.5l209 553q41 106 34 146q55 16 107 77q26 0 31 -18q30 -98 90 -274l280 -824q44 -131 75.5 -170t98.5 -47l56 -6q10 -8 9 -26t-9 -25q-126 6 -248 6q-59 0 -236 -6q-12 6 -13.5 25t9.5 26l60 6 q71 7 71 37q0 29 -26 109l-90 278q-11 34 -24.5 42.5t-59.5 8.5h-310q-39 0 -53.5 -8.5t-24.5 -40.5l-71 -215q-45 -134 -45 -170q0 -20 12 -29t47 -12l68 -6q11 -7 10 -26t-14 -25q-29 2 -213 6q-32 0 -197 -6q-9 6 -11 24.5zM422 615q6 -7 49 -7h252q44 0 51.5 11.5 t-6.5 52.5l-111 334q-32 97 -47 129h-4q-9 -15 -49 -121l-129 -357q-12 -35 -6 -42zM473 1612q0 66 49.5 116t124.5 50t124.5 -50t49.5 -116q0 -68 -49.5 -117t-124.5 -49t-124.5 49t-49.5 117zM555 1612q0 -47 26.5 -78t65.5 -31q40 0 66 31t26 78q0 46 -26 76t-66 30 q-39 0 -65.5 -30.5t-26.5 -75.5z" />
<glyph unicode="&#xc6;" horiz-adv-x="1740" d="M-99.5 18.5q-1.5 18.5 11.5 26.5l63 10q39 6 69 35.5t75 112.5q180 330 497 944q50 92 50 117q0 11 -10.5 16t-34.5 8l-123 19q-10 9 -8 27.5t14 23.5q144 -6 239 -6h537q251 0 276 6q11 -33 33 -271q-6 -11 -24.5 -13t-26.5 7q-31 95 -50 125q-36 55 -106 72 q-43 10 -198 10h-148q-44 0 -51.5 -11t-7.5 -71v-409q0 -42 10 -50t57 -8h119q133 0 174 13q20 7 31 21t18 50l17 84q7 9 27 8.5t26 -10.5q0 -21 -4 -92.5t-4 -114.5q0 -41 4 -109t4 -87q-6 -10 -26 -10.5t-27 8.5l-19 80q-5 22 -12.5 37t-22.5 25t-26.5 15.5t-39 7.5 t-45 2.5t-57.5 0.5h-18h-119q-46 0 -56.5 -8.5t-10.5 -47.5v-288q0 -90 7.5 -139t29.5 -74q23 -23 74.5 -35.5t175.5 -12.5q119 0 173 6.5t87 24.5q62 34 145 199q9 8 27 3.5t24 -17.5q-10 -55 -40.5 -149t-51.5 -136q-276 6 -549 6h-188q-91 0 -273 -6q-9 5 -11 23.5 t7 27.5l70 6q37 3 57.5 10.5t35.5 21t21 45.5t8.5 70t2.5 109v301q0 44 -12 52t-78 8h-168q-64 0 -80.5 -11.5t-52.5 -78.5q-136 -254 -207 -435q-18 -43 -12.5 -59.5t43.5 -22.5l110 -16q9 -11 8 -28t-10 -23q-123 6 -225 6q-45 0 -117.5 -2.5t-93.5 -3.5q-12 6 -13.5 24.5 zM514.5 745.5q8.5 -6.5 67.5 -6.5h137q67 0 78.5 8.5t11.5 57.5v399q0 64 -12 74h-11q-18 -9 -47 -64q-82 -155 -217 -430q-16 -32 -7.5 -38.5z" />
<glyph unicode="&#xc7;" horiz-adv-x="1425" d="M90 668q0 163 64 299t174.5 226.5t258 140.5t314.5 50q82 0 186 -14t177 -35q41 -10 57 -8q5 -112 29 -301q-7 -10 -26.5 -11.5t-29.5 7.5q-67 299 -420 299q-95 0 -180.5 -23.5t-158.5 -74t-126.5 -123t-83.5 -175.5t-30 -227q0 -157 47.5 -285t130.5 -210.5t193 -127 t237 -44.5q76 0 141.5 19.5t110 48.5t81.5 70t58 78t37 77q10 8 28.5 4.5t24.5 -13.5q-10 -75 -41.5 -161.5t-56.5 -118.5q-22 -3 -72 -21q-41 -14 -124.5 -29t-165.5 -16l-56 -88q-14 -24 17 -45q88 -60 88 -135q0 -70 -60.5 -119t-136.5 -49q-52 0 -81 19t-29 49 q0 17 13.5 33t33.5 16t54 -28t46 -28q20 0 35.5 14.5t15.5 45.5q0 36 -33.5 71t-85.5 56v10l111 178q-282 3 -475 135q-132 89 -211.5 232.5t-79.5 331.5z" />
<glyph unicode="&#xc8;" horiz-adv-x="1196" d="M61 17.5q-2 18.5 7 27.5l67 6q37 3 58.5 10.5t36.5 21t21 45.5t8.5 70t2.5 109v737q0 53 -0.5 81t-3 60t-8 46.5t-13.5 30t-22.5 22t-32.5 11.5t-45 8l-33 4q-9 6 -6.5 26t11.5 25q132 -6 241 -6h385q252 0 277 6q10 -30 32 -273q-6 -9 -24.5 -11t-26.5 7q-30 94 -49 123 q-35 54 -106 72q-52 12 -199 12h-147q-45 0 -53.5 -11.5t-8.5 -70.5v-409q0 -42 10.5 -50t57.5 -8h118q134 0 175 13q20 7 31 21t18 50l16 84q7 9 27 8.5t26 -10.5q0 -21 -4 -92.5t-4 -114.5q0 -41 4 -109t4 -87q-6 -10 -26 -10.5t-27 8.5l-18 80q-13 62 -65 78 q-41 10 -157 10h-118q-47 0 -57.5 -8.5t-10.5 -47.5v-288q0 -90 8 -139t31 -74q23 -23 74.5 -35.5t173.5 -12.5q117 0 172.5 6.5t89.5 24.5q62 34 145 199q10 8 28 3.5t24 -17.5q-10 -53 -41.5 -148t-51.5 -137q-276 6 -548 6h-185q-97 0 -278 -6q-9 5 -11 23.5zM291 1624 q-15 31 12 84q11 23 28 35t29 12q15 0 56 -26l289 -236q4 -16 -3 -31t-18 -18l-342 147q-42 17 -51 33z" />
<glyph unicode="&#xc9;" horiz-adv-x="1196" d="M61 17.5q-2 18.5 7 27.5l67 6q37 3 58.5 10.5t36.5 21t21 45.5t8.5 70t2.5 109v737q0 53 -0.5 81t-3 60t-8 46.5t-13.5 30t-22.5 22t-32.5 11.5t-45 8l-33 4q-9 6 -6.5 26t11.5 25q132 -6 241 -6h385q252 0 277 6q10 -30 32 -273q-6 -9 -24.5 -11t-26.5 7q-30 94 -49 123 q-35 54 -106 72q-52 12 -199 12h-147q-45 0 -53.5 -11.5t-8.5 -70.5v-409q0 -42 10.5 -50t57.5 -8h118q134 0 175 13q20 7 31 21t18 50l16 84q7 9 27 8.5t26 -10.5q0 -21 -4 -92.5t-4 -114.5q0 -41 4 -109t4 -87q-6 -10 -26 -10.5t-27 8.5l-18 80q-13 62 -65 78 q-41 10 -157 10h-118q-47 0 -57.5 -8.5t-10.5 -47.5v-288q0 -90 8 -139t31 -74q23 -23 74.5 -35.5t173.5 -12.5q117 0 172.5 6.5t89.5 24.5q62 34 145 199q10 8 28 3.5t24 -17.5q-10 -53 -41.5 -148t-51.5 -137q-276 6 -548 6h-185q-97 0 -278 -6q-9 5 -11 23.5zM504 1495 l289 236q41 26 55 26q12 0 29 -12t28 -35q27 -52 15 -84q-14 -18 -54 -33l-342 -147q-11 3 -17.5 17.5t-2.5 31.5z" />
<glyph unicode="&#xca;" horiz-adv-x="1196" d="M61 17.5q-2 18.5 7 27.5l67 6q37 3 58.5 10.5t36.5 21t21 45.5t8.5 70t2.5 109v737q0 53 -0.5 81t-3 60t-8 46.5t-13.5 30t-22.5 22t-32.5 11.5t-45 8l-33 4q-9 6 -6.5 26t11.5 25q132 -6 241 -6h385q252 0 277 6q10 -30 32 -273q-6 -9 -24.5 -11t-26.5 7q-30 94 -49 123 q-35 54 -106 72q-52 12 -199 12h-147q-45 0 -53.5 -11.5t-8.5 -70.5v-409q0 -42 10.5 -50t57.5 -8h118q134 0 175 13q20 7 31 21t18 50l16 84q7 9 27 8.5t26 -10.5q0 -21 -4 -92.5t-4 -114.5q0 -41 4 -109t4 -87q-6 -10 -26 -10.5t-27 8.5l-18 80q-13 62 -65 78 q-41 10 -157 10h-118q-47 0 -57.5 -8.5t-10.5 -47.5v-288q0 -90 8 -139t31 -74q23 -23 74.5 -35.5t173.5 -12.5q117 0 172.5 6.5t89.5 24.5q62 34 145 199q10 8 28 3.5t24 -17.5q-10 -53 -41.5 -148t-51.5 -137q-276 6 -548 6h-185q-97 0 -278 -6q-9 5 -11 23.5zM319 1489 l250 235q41 41 86 0l250 -235q0 -14 -7.5 -27t-16.5 -14l-238 121q-22 11 -32.5 11t-32.5 -11l-232 -121q-13 0 -20 13t-7 28z" />
<glyph unicode="&#xcb;" horiz-adv-x="1196" d="M61 17.5q-2 18.5 7 27.5l67 6q37 3 58.5 10.5t36.5 21t21 45.5t8.5 70t2.5 109v737q0 53 -0.5 81t-3 60t-8 46.5t-13.5 30t-22.5 22t-32.5 11.5t-45 8l-33 4q-9 6 -6.5 26t11.5 25q132 -6 241 -6h385q252 0 277 6q10 -30 32 -273q-6 -9 -24.5 -11t-26.5 7q-30 94 -49 123 q-35 54 -106 72q-52 12 -199 12h-147q-45 0 -53.5 -11.5t-8.5 -70.5v-409q0 -42 10.5 -50t57.5 -8h118q134 0 175 13q20 7 31 21t18 50l16 84q7 9 27 8.5t26 -10.5q0 -21 -4 -92.5t-4 -114.5q0 -41 4 -109t4 -87q-6 -10 -26 -10.5t-27 8.5l-18 80q-13 62 -65 78 q-41 10 -157 10h-118q-47 0 -57.5 -8.5t-10.5 -47.5v-288q0 -90 8 -139t31 -74q23 -23 74.5 -35.5t173.5 -12.5q117 0 172.5 6.5t89.5 24.5q62 34 145 199q10 8 28 3.5t24 -17.5q-10 -53 -41.5 -148t-51.5 -137q-276 6 -548 6h-185q-97 0 -278 -6q-9 5 -11 23.5zM301 1556 q-5 45 24.5 80t75.5 35q45 0 75 -34t30 -76q0 -45 -29.5 -77t-75.5 -32q-100 0 -100 104zM700 1556q0 46 30.5 80.5t76.5 34.5q45 0 71.5 -33.5t26.5 -76.5q0 -46 -26 -77.5t-72 -31.5q-47 0 -76.5 26.5t-30.5 77.5z" />
<glyph unicode="&#xcc;" horiz-adv-x="692" d="M27 1626q-12 33 14 84q11 23 28 35t29 12q15 0 56 -26l288 -236q4 -17 -2.5 -31.5t-17.5 -17.5l-342 147q-39 15 -53 33zM79 17.5q-2 18.5 7 27.5l51 6q24 3 40 6t30.5 10.5t22.5 14t15 23.5t9.5 31.5t4.5 45t2.5 56.5t0.5 73v729q0 63 -0.5 95t-5 66.5t-11.5 48.5 t-22 28t-34.5 18t-51.5 7l-51 4q-9 6 -7 26t11 25q153 -6 258 -6q101 0 254 6q9 -5 11 -25t-7 -26l-51 -4q-32 -3 -51.5 -7t-34.5 -18t-22 -28t-11.5 -48.5t-5 -66.5t-0.5 -95v-729q0 -47 0.5 -73t2.5 -56.5t4.5 -45t9.5 -31.5t15 -23.5t22.5 -14t30.5 -10.5t40 -6l51 -6 q9 -6 7 -26t-11 -25q-153 6 -254 6q-105 0 -258 -6q-9 5 -11 23.5z" />
<glyph unicode="&#xcd;" horiz-adv-x="692" d="M79 17.5q-2 18.5 7 27.5l51 6q24 3 40 6t30.5 10.5t22.5 14t15 23.5t9.5 31.5t4.5 45t2.5 56.5t0.5 73v729q0 63 -0.5 95t-5 66.5t-11.5 48.5t-22 28t-34.5 18t-51.5 7l-51 4q-9 6 -7 26t11 25q153 -6 258 -6q101 0 254 6q9 -5 11 -25t-7 -26l-51 -4q-32 -3 -51.5 -7 t-34.5 -18t-22 -28t-11.5 -48.5t-5 -66.5t-0.5 -95v-729q0 -47 0.5 -73t2.5 -56.5t4.5 -45t9.5 -31.5t15 -23.5t22.5 -14t30.5 -10.5t40 -6l51 -6q9 -6 7 -26t-11 -25q-153 6 -254 6q-105 0 -258 -6q-9 5 -11 23.5zM252 1495l289 234q39 28 55 28q12 0 29 -12t28 -35 q27 -52 15 -84q-14 -18 -54 -33l-342 -147q-11 3 -17.5 17.5t-2.5 31.5z" />
<glyph unicode="&#xce;" horiz-adv-x="692" d="M66 1489l249 235q41 41 86 0l250 -235q0 -14 -7.5 -27t-16.5 -14l-238 121q-22 11 -32.5 11t-32.5 -11l-232 -121q-12 0 -19 13t-7 28zM79 17.5q-2 18.5 7 27.5l51 6q24 3 40 6t30.5 10.5t22.5 14t15 23.5t9.5 31.5t4.5 45t2.5 56.5t0.5 73v729q0 63 -0.5 95t-5 66.5 t-11.5 48.5t-22 28t-34.5 18t-51.5 7l-51 4q-9 6 -7 26t11 25q153 -6 258 -6q101 0 254 6q9 -5 11 -25t-7 -26l-51 -4q-32 -3 -51.5 -7t-34.5 -18t-22 -28t-11.5 -48.5t-5 -66.5t-0.5 -95v-729q0 -47 0.5 -73t2.5 -56.5t4.5 -45t9.5 -31.5t15 -23.5t22.5 -14t30.5 -10.5 t40 -6l51 -6q9 -6 7 -26t-11 -25q-153 6 -254 6q-105 0 -258 -6q-9 5 -11 23.5z" />
<glyph unicode="&#xcf;" horiz-adv-x="692" d="M72 1548q-5 45 24.5 80t75.5 35q45 0 74.5 -34.5t29.5 -76.5q0 -45 -29 -76.5t-75 -31.5q-100 0 -100 104zM79 17.5q-2 18.5 7 27.5l51 6q24 3 40 6t30.5 10.5t22.5 14t15 23.5t9.5 31.5t4.5 45t2.5 56.5t0.5 73v729q0 63 -0.5 95t-5 66.5t-11.5 48.5t-22 28t-34.5 18 t-51.5 7l-51 4q-9 6 -7 26t11 25q153 -6 258 -6q101 0 254 6q9 -5 11 -25t-7 -26l-51 -4q-32 -3 -51.5 -7t-34.5 -18t-22 -28t-11.5 -48.5t-5 -66.5t-0.5 -95v-729q0 -47 0.5 -73t2.5 -56.5t4.5 -45t9.5 -31.5t15 -23.5t22.5 -14t30.5 -10.5t40 -6l51 -6q9 -6 7 -26t-11 -25 q-153 6 -254 6q-105 0 -258 -6q-9 5 -11 23.5zM446 1548q0 46 30.5 80.5t76.5 34.5q45 0 71.5 -34t26.5 -77q0 -46 -26 -77t-72 -31q-47 0 -76.5 26.5t-30.5 77.5z" />
<glyph unicode="&#xd0;" horiz-adv-x="1609" d="M64 703q0 25 14 36h184v295q0 149 -17.5 199t-88.5 59l-35 4q-13 6 -13 25t15 25q348 12 522 12q141 0 244.5 -12.5t197.5 -47.5q202 -73 309 -234t107 -368q0 -200 -92.5 -359.5t-265.5 -254.5q-181 -98 -459 -98q-73 0 -189 8t-145 8q-112 0 -256 -6q-9 5 -11 23.5 t7 27.5l47 6q32 4 50.5 8.5t34 18t22 26t11 46t5 64.5t0.5 93v361h-184q-14 10 -14 35zM430 354q0 -89 8 -138.5t33 -84.5q33 -46 92.5 -65t159.5 -19q146 0 257 46t180 132t103.5 202t34.5 261q0 75 -14.5 149t-58.5 159t-112.5 149t-187 106.5t-272.5 42.5 q-165 0 -202 -28q-21 -16 -21 -156v-371h377q13 -10 13 -35.5t-13 -35.5h-377v-314z" />
<glyph unicode="&#xd1;" horiz-adv-x="1603" d="M42.5 1334q0.5 18 12.5 24q86 -6 232 -6q53 0 94 6q42 -107 350 -451l199 -223q260 -292 338 -371h4q8 10 8 86v439q0 360 -41 424q-19 28 -127 41l-35 4q-11 9 -9.5 28t13.5 23q141 -6 242 -6q106 0 211 6q12 -7 12.5 -24.5t-8.5 -26.5l-29 -4q-100 -15 -114 -43 q-6 -12 -10.5 -30t-7.5 -42.5t-5.5 -48t-4 -55.5t-2 -55t-1 -57t-0.5 -50.5v-47v-36.5v-490q0 -305 6 -358q-8 -23 -39 -23q-39 55 -262 309l-475 541q-14 16 -113.5 133.5t-124.5 143.5h-4q-10 -31 -10 -133v-447q0 -360 37 -424q17 -32 104 -39l64 -6q9 -12 8 -27.5 t-12 -23.5q-138 6 -240 6q-105 0 -213 -6q-10 7 -11.5 24.5t7.5 26.5l55 6q76 10 90 41q27 69 27 422v592q0 51 -8 83t-37 64q-39 39 -127 50l-35 4q-9 9 -8.5 27zM569 1417q8 35 33.5 92t50.5 78q24 27 49.5 37t63.5 10h129q70 0 100.5 14.5t69.5 67.5q9 7 21 4t16 -14 q-10 -40 -36 -88t-48 -70q-22 -20 -45.5 -26t-63.5 -6h-118q-70 0 -107.5 -24t-71.5 -83q-9 -8 -23 -6t-20 14z" />
<glyph unicode="&#xd2;" horiz-adv-x="1628" d="M94 662q0 152 55 285.5t151 229.5t231.5 151.5t291.5 55.5q138 0 255 -38.5t200 -105t141.5 -156t86.5 -191.5t28 -211q0 -152 -56 -286t-151 -227.5t-226.5 -147.5t-277.5 -54q-166 0 -305 56.5t-231 152.5t-142.5 221.5t-50.5 264.5zM299 727q0 -95 18 -189 t60.5 -186.5t104 -163t157 -114t211.5 -43.5q95 0 179 36t152 105.5t108 184.5t40 261q0 105 -18.5 203t-60 190t-102.5 160t-154 109t-206 41q-67 0 -132.5 -18t-131 -62.5t-115 -110t-80 -170t-30.5 -233.5zM532 1626q-19 37 13 84q33 47 57 47q14 0 55 -26l289 -236 q4 -17 -2.5 -31.5t-17.5 -17.5l-342 147q-43 18 -52 33z" />
<glyph unicode="&#xd3;" horiz-adv-x="1628" d="M94 662q0 152 55 285.5t151 229.5t231.5 151.5t291.5 55.5q138 0 255 -38.5t200 -105t141.5 -156t86.5 -191.5t28 -211q0 -152 -56 -286t-151 -227.5t-226.5 -147.5t-277.5 -54q-166 0 -305 56.5t-231 152.5t-142.5 221.5t-50.5 264.5zM299 727q0 -95 18 -189 t60.5 -186.5t104 -163t157 -114t211.5 -43.5q95 0 179 36t152 105.5t108 184.5t40 261q0 105 -18.5 203t-60 190t-102.5 160t-154 109t-206 41q-67 0 -132.5 -18t-131 -62.5t-115 -110t-80 -170t-30.5 -233.5zM721 1505l289 236q41 26 55 26q12 0 29 -12t28 -35 q27 -52 15 -84q-13 -16 -54 -32l-342 -148q-11 3 -17.5 17.5t-2.5 31.5z" />
<glyph unicode="&#xd4;" horiz-adv-x="1628" d="M94 662q0 152 55 285.5t151 229.5t231.5 151.5t291.5 55.5q138 0 255 -38.5t200 -105t141.5 -156t86.5 -191.5t28 -211q0 -152 -56 -286t-151 -227.5t-226.5 -147.5t-277.5 -54q-166 0 -305 56.5t-231 152.5t-142.5 221.5t-50.5 264.5zM299 727q0 -95 18 -189 t60.5 -186.5t104 -163t157 -114t211.5 -43.5q95 0 179 36t152 105.5t108 184.5t40 261q0 105 -18.5 203t-60 190t-102.5 160t-154 109t-206 41q-67 0 -132.5 -18t-131 -62.5t-115 -110t-80 -170t-30.5 -233.5zM535 1489l249 227q44 39 86 0l250 -227q0 -14 -7.5 -27 t-16.5 -14l-238 119q-22 11 -32.5 11t-32.5 -11l-232 -119q-12 0 -19 13t-7 28z" />
<glyph unicode="&#xd5;" horiz-adv-x="1628" d="M94 662q0 152 55 285.5t151 229.5t231.5 151.5t291.5 55.5q138 0 255 -38.5t200 -105t141.5 -156t86.5 -191.5t28 -211q0 -152 -56 -286t-151 -227.5t-226.5 -147.5t-277.5 -54q-166 0 -305 56.5t-231 152.5t-142.5 221.5t-50.5 264.5zM299 727q0 -95 18 -189 t60.5 -186.5t104 -163t157 -114t211.5 -43.5q95 0 179 36t152 105.5t108 184.5t40 261q0 105 -18.5 203t-60 190t-102.5 160t-154 109t-206 41q-67 0 -132.5 -18t-131 -62.5t-115 -110t-80 -170t-30.5 -233.5zM557 1421q8 37 33.5 97t50.5 81q24 29 50 40.5t63 11.5h129 q70 0 100.5 14.5t69.5 69.5q9 8 21 5.5t16 -14.5q-10 -43 -35.5 -92t-48.5 -73q-22 -22 -46 -28.5t-63 -6.5h-119q-71 0 -107.5 -25t-70.5 -88q-9 -6 -23 -4t-20 12z" />
<glyph unicode="&#xd6;" horiz-adv-x="1628" d="M94 662q0 152 55 285.5t151 229.5t231.5 151.5t291.5 55.5q138 0 255 -38.5t200 -105t141.5 -156t86.5 -191.5t28 -211q0 -152 -56 -286t-151 -227.5t-226.5 -147.5t-277.5 -54q-166 0 -305 56.5t-231 152.5t-142.5 221.5t-50.5 264.5zM299 727q0 -95 18 -189 t60.5 -186.5t104 -163t157 -114t211.5 -43.5q95 0 179 36t152 105.5t108 184.5t40 261q0 105 -18.5 203t-60 190t-102.5 160t-154 109t-206 41q-67 0 -132.5 -18t-131 -62.5t-115 -110t-80 -170t-30.5 -233.5zM524 1569q-5 45 25 79.5t76 34.5q45 0 74.5 -34t29.5 -76 q0 -46 -29 -77.5t-75 -31.5q-48 0 -74.5 26.5t-26.5 78.5zM909 1569q0 46 30.5 80t76.5 34q45 0 71.5 -33.5t26.5 -76.5q0 -46 -26 -77.5t-72 -31.5q-47 0 -76.5 27t-30.5 78z" />
<glyph unicode="&#xd7;" d="M133 102l301 306l-301 301l76 79l303 -303l305 308l76 -78l-303 -307l303 -306l-76 -79l-305 307l-303 -307z" />
<glyph unicode="&#xd8;" horiz-adv-x="1628" d="M94 662q0 152 55 285.5t151 229.5t231.5 151.5t291.5 55.5q239 0 412 -112l117 147q23 -2 42 -17t19 -34l-113 -143q115 -98 174.5 -241t59.5 -308q0 -200 -95 -363t-257.5 -254.5t-358.5 -91.5q-241 0 -424 121l-137 -170q-22 0 -40 15t-19 36l133 166q-116 95 -179 233 t-63 294zM299 727q0 -125 33 -249t100 -222l719 909q-140 156 -363 156q-67 0 -132.5 -18t-131 -62.5t-115 -110t-80 -170t-30.5 -233.5zM481 193q142 -162 369 -162q95 0 179 36t152 105.5t108 184.5t40 261q0 291 -129 482z" />
<glyph unicode="&#xd9;" horiz-adv-x="1527" d="M65 1334q2 19 11 24q153 -6 254 -6q102 0 252 6q9 -5 11 -24t-7 -25l-49 -4q-23 -2 -39.5 -5t-30 -10.5t-22 -14t-15 -23.5t-9.5 -31.5t-4.5 -45t-2 -56t-0.5 -72.5v-443q0 -128 21.5 -225t68.5 -171t128.5 -112.5t196.5 -38.5q108 0 188.5 41t128 115.5t70.5 171.5 t23 217v236q0 356 -39 424q-21 37 -102 43l-51 4q-9 11 -7 27t11 22q117 -6 233 -6q104 0 215 6q11 -7 11.5 -23.5t-7.5 -25.5l-49 -4q-38 -3 -65.5 -16.5t-36.5 -33.5q-29 -68 -29 -417v-232q0 -336 -143 -489q-65 -71 -170.5 -110.5t-221.5 -39.5q-251 0 -382 113 q-82 68 -121 184.5t-39 298.5v484q0 47 -0.5 72.5t-2 56t-4.5 45t-9.5 31.5t-15 23.5t-22 14t-30 10.5t-39.5 5l-51 4q-9 6 -7 25zM498 1626q-15 31 12 84q11 23 28 35t29 12q15 0 56 -26l288 -236q4 -17 -2.5 -31.5t-17.5 -17.5l-342 147q-42 17 -51 33z" />
<glyph unicode="&#xda;" horiz-adv-x="1527" d="M65 1334q2 19 11 24q153 -6 254 -6q102 0 252 6q9 -5 11 -24t-7 -25l-49 -4q-23 -2 -39.5 -5t-30 -10.5t-22 -14t-15 -23.5t-9.5 -31.5t-4.5 -45t-2 -56t-0.5 -72.5v-443q0 -128 21.5 -225t68.5 -171t128.5 -112.5t196.5 -38.5q108 0 188.5 41t128 115.5t70.5 171.5 t23 217v236q0 356 -39 424q-21 37 -102 43l-51 4q-9 11 -7 27t11 22q117 -6 233 -6q104 0 215 6q11 -7 11.5 -23.5t-7.5 -25.5l-49 -4q-38 -3 -65.5 -16.5t-36.5 -33.5q-29 -68 -29 -417v-232q0 -336 -143 -489q-65 -71 -170.5 -110.5t-221.5 -39.5q-251 0 -382 113 q-82 68 -121 184.5t-39 298.5v484q0 47 -0.5 72.5t-2 56t-4.5 45t-9.5 31.5t-15 23.5t-22 14t-30 10.5t-39.5 5l-51 4q-9 6 -7 25zM702 1495l289 236q41 26 56 26q12 0 29 -12t28 -35q26 -51 14 -84q-14 -18 -53 -33l-342 -147q-11 3 -18 18t-3 31z" />
<glyph unicode="&#xdb;" horiz-adv-x="1527" d="M65 1334q2 19 11 24q153 -6 254 -6q102 0 252 6q9 -5 11 -24t-7 -25l-49 -4q-23 -2 -39.5 -5t-30 -10.5t-22 -14t-15 -23.5t-9.5 -31.5t-4.5 -45t-2 -56t-0.5 -72.5v-443q0 -128 21.5 -225t68.5 -171t128.5 -112.5t196.5 -38.5q108 0 188.5 41t128 115.5t70.5 171.5 t23 217v236q0 356 -39 424q-21 37 -102 43l-51 4q-9 11 -7 27t11 22q117 -6 233 -6q104 0 215 6q11 -7 11.5 -23.5t-7.5 -25.5l-49 -4q-38 -3 -65.5 -16.5t-36.5 -33.5q-29 -68 -29 -417v-232q0 -336 -143 -489q-65 -71 -170.5 -110.5t-221.5 -39.5q-251 0 -382 113 q-82 68 -121 184.5t-39 298.5v484q0 47 -0.5 72.5t-2 56t-4.5 45t-9.5 31.5t-15 23.5t-22 14t-30 10.5t-39.5 5l-51 4q-9 6 -7 25zM535 1489l249 227q44 39 86 0l250 -227q0 -14 -7.5 -27t-16.5 -14l-238 119q-22 11 -32.5 11t-32.5 -11l-232 -119q-12 0 -19 13t-7 28z" />
<glyph unicode="&#xdc;" horiz-adv-x="1527" d="M65 1334q2 19 11 24q153 -6 254 -6q102 0 252 6q9 -5 11 -24t-7 -25l-49 -4q-23 -2 -39.5 -5t-30 -10.5t-22 -14t-15 -23.5t-9.5 -31.5t-4.5 -45t-2 -56t-0.5 -72.5v-443q0 -128 21.5 -225t68.5 -171t128.5 -112.5t196.5 -38.5q108 0 188.5 41t128 115.5t70.5 171.5 t23 217v236q0 356 -39 424q-21 37 -102 43l-51 4q-9 11 -7 27t11 22q117 -6 233 -6q104 0 215 6q11 -7 11.5 -23.5t-7.5 -25.5l-49 -4q-38 -3 -65.5 -16.5t-36.5 -33.5q-29 -68 -29 -417v-232q0 -336 -143 -489q-65 -71 -170.5 -110.5t-221.5 -39.5q-251 0 -382 113 q-82 68 -121 184.5t-39 298.5v484q0 47 -0.5 72.5t-2 56t-4.5 45t-9.5 31.5t-15 23.5t-22 14t-30 10.5t-39.5 5l-51 4q-9 6 -7 25zM514 1548q-5 45 24.5 80t75.5 35q45 0 75 -34.5t30 -76.5q0 -45 -29.5 -76.5t-75.5 -31.5q-100 0 -100 104zM909 1548q0 46 30.5 80.5 t76.5 34.5q45 0 71.5 -34t26.5 -77q0 -46 -26 -77t-72 -31q-47 0 -76.5 26.5t-30.5 77.5z" />
<glyph unicode="&#xdd;" horiz-adv-x="1175" d="M-13.5 1334.5q1.5 17.5 11.5 23.5q99 -6 238 -6q142 0 219 6q13 -4 14.5 -23t-8.5 -28l-27 -4q-51 -7 -68.5 -15.5t-17.5 -21.5t25 -72t39 -86q19 -38 70 -142.5t88 -177t73 -135.5q138 239 193 346q133 247 133 271q0 9 -25 19t-61 14l-37 4q-11 10 -9.5 27.5t13.5 23.5 q111 -6 197 -6q85 0 190 6q12 -7 13.5 -24.5t-9.5 -26.5l-57 -11q-17 -3 -33 -9.5t-32.5 -19t-29 -23t-29 -33t-27 -36.5t-29 -45t-28 -46.5t-31.5 -54t-32 -56.5l-129 -223q-68 -118 -82 -166t-14 -166v-107q0 -71 2.5 -111t8.5 -72t21 -46t35.5 -21t55.5 -10l78 -6 q9 -9 7 -27.5t-11 -23.5q-191 6 -279 6q-104 0 -268 -6q-9 5 -11 23.5t7 27.5l63 6q24 2 39.5 5t29.5 10.5t22 14t15 23.5t9.5 31.5t4.5 45t2.5 56.5t0.5 74v105q0 85 -10.5 126.5t-54.5 127.5l-242 471q-49 94 -79.5 120.5t-82.5 34.5l-57 11q-9 10 -7.5 27.5zM524 1495 l289 236q41 26 55 26q13 0 30 -12t28 -35q26 -51 14 -84q-14 -18 -53 -33l-342 -147q-11 3 -18 18t-3 31z" />
<glyph unicode="&#xde;" horiz-adv-x="1148" d="M81 1333q2 20 11 25q153 -6 258 -6q107 0 248 6q9 -7 9.5 -25.5t-5.5 -25.5l-33 -4q-34 -4 -55.5 -10t-38 -18.5t-24.5 -26.5t-13.5 -43t-6.5 -58t-1 -80h166q100 0 182 -20.5t146.5 -63.5t100.5 -115t36 -168q0 -111 -55 -187t-129 -114q-68 -34 -151.5 -48t-147.5 -11 q-9 4 -10 20.5t7 20.5q299 44 299 311q0 146 -83.5 229t-243.5 83q-80 0 -98.5 -12t-18.5 -60v-625q0 -63 0.5 -94t5 -65t11 -47t21.5 -26t34 -17t51 -7l76 -6q9 -6 7 -26t-11 -25q-184 6 -275 6q-111 0 -252 -6q-9 5 -11 23.5t7 27.5l45 6q32 4 50.5 8.5t34 18t22 26t11 46 t5 64.5t0.5 93v737q0 60 -1.5 96.5t-7 67.5t-13 46t-23.5 26.5t-34.5 15.5t-49.5 7l-45 4q-9 6 -7 26z" />
<glyph unicode="&#xdf;" horiz-adv-x="1071" d="M61.5 18q-1.5 19 8.5 27l47 6q55 7 66.5 35.5t11.5 142.5v433q0 42 -5.5 50.5t-35.5 8.5h-72q-9 6 -10.5 18t4.5 21l88 43q31 15 31 41q0 201 71 350q35 73 84.5 130t132.5 98.5t183 41.5q80 0 141.5 -24t96.5 -64t52 -86.5t17 -97.5q0 -29 -6.5 -54.5t-14.5 -43 t-25.5 -39t-28.5 -32.5t-35 -33t-34 -32l-49 -47q-94 -88 -94 -161q0 -39 21 -76.5t50 -65.5t83 -71q39 -30 64.5 -54.5t54 -60.5t43 -80t14.5 -94q0 -123 -92.5 -200t-212.5 -77q-118 0 -160 39q-21 21 -25.5 54.5t13.5 62.5q6 9 20 11t23 -7q2 -2 14 -13t19 -17.5 t20.5 -18t24.5 -19t23.5 -15t25 -11.5t22.5 -4q58 0 102 43t44 123q0 117 -158 235q-166 124 -166 260q0 58 34 106.5t111 123.5q131 121 131 239q0 96 -60.5 163t-160.5 67q-124 0 -193 -152.5t-69 -398.5v-613q0 -113 9 -143.5t48 -34.5l50 -6q10 -8 8.5 -27t-12.5 -24 q-102 6 -179 6q-104 0 -196 -6q-11 5 -12.5 24z" />
<glyph unicode="&#xe0;" horiz-adv-x="827" d="M72 162q0 61 37 100t133 74l243 88q22 7 28.5 20t6.5 39l2 95q1 32 -5 60.5t-21 56.5t-46.5 44.5t-76.5 16.5q-48 0 -88 -24t-43 -68q-3 -57 -21 -70q-22 -18 -56.5 -28.5t-60.5 -10.5q-28 0 -28 29q0 51 63.5 111t154 100.5t163.5 40.5q109 0 163.5 -62t49.5 -178 l-13 -356q-8 -179 95 -179q25 0 51 13q23 14 26 14q6 0 10.5 -8t4.5 -19q0 -7 -21 -27.5t-63.5 -41.5t-87.5 -21q-83 0 -133 64q-19 28 -33 28q-4 0 -9.5 -1.5t-13.5 -6t-15 -8.5t-20 -11.5t-22 -12.5q-34 -19 -48 -26t-43.5 -16.5t-55.5 -9.5q-92 0 -149.5 52.5 t-57.5 138.5zM154 1272q0 23 41 53q38 33 71 33q29 0 51 -49l168 -348q0 -12 -16 -19.5t-29 -5.5l-250 272q-36 39 -36 64zM229 186q0 -23 9.5 -48.5t40.5 -50t79 -24.5q29 0 68.5 17.5t56.5 34.5q12 12 18 28.5t7 27.5t2 40l4 121q0 16 -5 21t-15 5q-22 0 -84 -20 q-99 -34 -140 -65t-41 -87z" />
<glyph unicode="&#xe1;" horiz-adv-x="827" d="M72 162q0 61 37 100t133 74l243 88q22 7 28.5 20t6.5 39l2 95q1 32 -5 60.5t-21 56.5t-46.5 44.5t-76.5 16.5q-48 0 -88 -24t-43 -68q-3 -57 -21 -70q-22 -18 -56.5 -28.5t-60.5 -10.5q-28 0 -28 29q0 51 63.5 111t154 100.5t163.5 40.5q109 0 163.5 -62t49.5 -178 l-13 -356q-8 -179 95 -179q25 0 51 13q23 14 26 14q6 0 10.5 -8t4.5 -19q0 -7 -21 -27.5t-63.5 -41.5t-87.5 -21q-83 0 -133 64q-19 28 -33 28q-4 0 -9.5 -1.5t-13.5 -6t-15 -8.5t-20 -11.5t-22 -12.5q-34 -19 -48 -26t-43.5 -16.5t-55.5 -9.5q-92 0 -149.5 52.5 t-57.5 138.5zM229 186q0 -23 9.5 -48.5t40.5 -50t79 -24.5q29 0 68.5 17.5t56.5 34.5q12 12 18 28.5t7 27.5t2 40l4 121q0 16 -5 21t-15 5q-22 0 -84 -20q-99 -34 -140 -65t-41 -87zM358 967l177 333q26 50 49 50t60.5 -30t37.5 -54q0 -23 -33 -56l-256 -266 q-11 -2 -22.5 5.5t-12.5 17.5z" />
<glyph unicode="&#xe2;" horiz-adv-x="827" d="M72 162q0 61 37 100t133 74l243 88q22 7 28.5 20t6.5 39l2 95q1 32 -5 60.5t-21 56.5t-46.5 44.5t-76.5 16.5q-48 0 -88 -24t-43 -68q-3 -57 -21 -70q-22 -18 -56.5 -28.5t-60.5 -10.5q-28 0 -28 29q0 51 63.5 111t154 100.5t163.5 40.5q109 0 163.5 -62t49.5 -178 l-13 -356q-8 -179 95 -179q25 0 51 13q23 14 26 14q6 0 10.5 -8t4.5 -19q0 -7 -21 -27.5t-63.5 -41.5t-87.5 -21q-83 0 -133 64q-19 28 -33 28q-4 0 -9.5 -1.5t-13.5 -6t-15 -8.5t-20 -11.5t-22 -12.5q-34 -19 -48 -26t-43.5 -16.5t-55.5 -9.5q-92 0 -149.5 52.5 t-57.5 138.5zM180 950l185 353q35 63 71 0l187 -353q-1 -9 -19 -15t-26 -3l-150 190q-19 23 -27.5 23t-27.5 -23l-152 -190q-9 -3 -24.5 3t-16.5 15zM229 186q0 -23 9.5 -48.5t40.5 -50t79 -24.5q29 0 68.5 17.5t56.5 34.5q12 12 18 28.5t7 27.5t2 40l4 121q0 16 -5 21 t-15 5q-22 0 -84 -20q-99 -34 -140 -65t-41 -87z" />
<glyph unicode="&#xe3;" horiz-adv-x="827" d="M72 162q0 61 37 100t133 74l243 88q22 7 28.5 20t6.5 39l2 95q1 32 -5 60.5t-21 56.5t-46.5 44.5t-76.5 16.5q-48 0 -88 -24t-43 -68q-3 -57 -21 -70q-22 -18 -56.5 -28.5t-60.5 -10.5q-28 0 -28 29q0 51 63.5 111t154 100.5t163.5 40.5q109 0 163.5 -62t49.5 -178 l-13 -356q-8 -179 95 -179q25 0 51 13q23 14 26 14q6 0 10.5 -8t4.5 -19q0 -7 -21 -27.5t-63.5 -41.5t-87.5 -21q-83 0 -133 64q-19 28 -33 28q-4 0 -9.5 -1.5t-13.5 -6t-15 -8.5t-20 -11.5t-22 -12.5q-34 -19 -48 -26t-43.5 -16.5t-55.5 -9.5q-92 0 -149.5 52.5 t-57.5 138.5zM176 952q6 30 30 85.5t46 76.5q42 47 110 47h109q64 0 92 13.5t62 64.5q25 12 34 -12q-9 -37 -31.5 -80t-43.5 -66q-22 -19 -43.5 -25.5t-57.5 -6.5h-106q-65 0 -100 -24t-66 -81q-7 -6 -19 -3.5t-16 11.5zM229 186q0 -23 9.5 -48.5t40.5 -50t79 -24.5 q29 0 68.5 17.5t56.5 34.5q12 12 18 28.5t7 27.5t2 40l4 121q0 16 -5 21t-15 5q-22 0 -84 -20q-99 -34 -140 -65t-41 -87z" />
<glyph unicode="&#xe4;" horiz-adv-x="827" d="M72 162q0 61 37 100t133 74l243 88q22 7 28.5 20t6.5 39l2 95q1 32 -5 60.5t-21 56.5t-46.5 44.5t-76.5 16.5q-48 0 -88 -24t-43 -68q-3 -57 -21 -70q-22 -18 -56.5 -28.5t-60.5 -10.5q-28 0 -28 29q0 51 63.5 111t154 100.5t163.5 40.5q109 0 163.5 -62t49.5 -178 l-13 -356q-8 -179 95 -179q25 0 51 13q23 14 26 14q6 0 10.5 -8t4.5 -19q0 -7 -21 -27.5t-63.5 -41.5t-87.5 -21q-83 0 -133 64q-19 28 -33 28q-4 0 -9.5 -1.5t-13.5 -6t-15 -8.5t-20 -11.5t-22 -12.5q-34 -19 -48 -26t-43.5 -16.5t-55.5 -9.5q-92 0 -149.5 52.5 t-57.5 138.5zM121 1128q-2 45 27 76t73 31q43 0 73 -30t30 -68q0 -47 -29.5 -78t-73.5 -31q-43 0 -71 26.5t-29 73.5zM229 186q0 -23 9.5 -48.5t40.5 -50t79 -24.5q29 0 68.5 17.5t56.5 34.5q12 12 18 28.5t7 27.5t2 40l4 121q0 16 -5 21t-15 5q-22 0 -84 -20 q-99 -34 -140 -65t-41 -87zM475 1130q0 43 30.5 74t74.5 31q42 0 70 -29.5t28 -66.5q0 -48 -27 -79.5t-71 -31.5t-74 28t-31 74z" />
<glyph unicode="&#xe5;" horiz-adv-x="827" d="M72 162q0 61 37 100t133 74l243 88q22 7 28.5 20t6.5 39l2 95q1 32 -5 60.5t-21 56.5t-46.5 44.5t-76.5 16.5q-48 0 -88 -24t-43 -68q-3 -57 -21 -70q-22 -18 -56.5 -28.5t-60.5 -10.5q-28 0 -28 29q0 51 63.5 111t154 100.5t163.5 40.5q109 0 163.5 -62t49.5 -178 l-13 -356q-8 -179 95 -179q25 0 51 13q23 14 26 14q6 0 10.5 -8t4.5 -19q0 -7 -21 -27.5t-63.5 -41.5t-87.5 -21q-83 0 -133 64q-19 28 -33 28q-4 0 -9.5 -1.5t-13.5 -6t-15 -8.5t-20 -11.5t-22 -12.5q-34 -19 -48 -26t-43.5 -16.5t-55.5 -9.5q-92 0 -149.5 52.5 t-57.5 138.5zM229 186q0 -23 9.5 -48.5t40.5 -50t79 -24.5q29 0 68.5 17.5t56.5 34.5q12 12 18 28.5t7 27.5t2 40l4 121q0 16 -5 21t-15 5q-22 0 -84 -20q-99 -34 -140 -65t-41 -87zM240 1141q0 67 50 116.5t124 49.5t124 -49.5t50 -116.5q0 -68 -49.5 -117t-124.5 -49 t-124.5 49t-49.5 117zM322 1141q0 -47 26.5 -78t65.5 -31q40 0 66 31t26 78q0 46 -26 76t-66 30q-39 0 -65.5 -30.5t-26.5 -75.5z" />
<glyph unicode="&#xe6;" horiz-adv-x="1198" d="M72 152q0 67 45.5 114.5t115.5 73.5l218 82q32 11 39.5 19t7.5 32v84q0 38 -1.5 61.5t-9 54.5t-21.5 49t-41.5 31t-66.5 13q-57 0 -86.5 -30t-33.5 -68q-4 -50 -23 -64t-54 -26.5t-61 -12.5q-10 0 -17 8.5t-7 20.5q0 33 31 74t77 75q126 93 254 93q134 0 178 -115 q119 115 281 115q105 0 185.5 -60t80.5 -149q0 -42 -37 -54l-452 -145q-24 -8 -30.5 -16t-6.5 -31v-49q0 -121 69 -186.5t185 -65.5q69 0 121.5 26.5t115.5 102.5q12 6 24.5 -4t10.5 -21q-62 -113 -146.5 -163t-201.5 -50q-95 0 -164 37.5t-110 95.5l-84 -57 q-60 -41 -107 -58.5t-102 -17.5q-73 0 -124.5 51.5t-51.5 129.5zM227 176q0 -50 31.5 -81.5t79.5 -31.5q67 0 125 58q35 38 35 104v109q0 24 -10 28.5t-35 -4.5l-91 -30q-135 -48 -135 -152zM637 520q0 -24 6 -28.5t31 2.5l231 75q53 16 71.5 30.5t18.5 45.5q0 55 -44 92 t-105 37q-91 0 -150 -77.5t-59 -176.5z" />
<glyph unicode="&#xe7;" horiz-adv-x="821" d="M74 379q0 85 30.5 165t89 146t156 106t219.5 40q106 0 183 -35q30 -26 30 -82q0 -29 -13.5 -52.5t-31.5 -23.5q-17 0 -28 14q-38 46 -92 77.5t-113 31.5q-115 0 -199 -88t-84 -242q0 -62 21.5 -122.5t61 -112t104 -83.5t143.5 -32q83 0 135 32t92 91q12 3 23.5 -6 t13.5 -23q-39 -85 -109.5 -134t-152.5 -62l-59 -97q-14 -25 16 -43q84 -57 84 -129q0 -67 -57.5 -113t-130.5 -46q-50 0 -77.5 17.5t-27.5 45.5q0 17 12.5 32t32.5 15q19 0 51 -26.5t43 -26.5q20 0 34.5 13.5t14.5 43.5q0 35 -32 68.5t-80 52.5v10l106 172q-2 -2 -10 -2 q-177 0 -288 112.5t-111 295.5z" />
<glyph unicode="&#xe8;" horiz-adv-x="811" d="M72 373q0 94 30 178.5t83 147.5t130.5 100t167.5 37q127 0 209 -73.5t82 -170.5q0 -37 -8 -53q-8 -15 -121 -15h-379q-39 0 -47 -8t-8 -47q0 -163 91 -273t249 -110q55 0 99 21.5t89 78.5q15 4 25 -3t12 -21q-47 -96 -138.5 -143.5t-182.5 -47.5q-175 0 -279 115.5 t-104 286.5zM231 1268q0 20 39 51q45 29 70 29q26 0 47 -48l162 -329q0 -12 -16 -19.5t-27 -5.5l-240 260q-35 38 -35 62zM233 596q0 -10 15 -10h145q186 0 213 20q12 8 12 39q0 51 -38 90t-119 39q-85 0 -155.5 -61t-72.5 -117z" />
<glyph unicode="&#xe9;" horiz-adv-x="811" d="M72 373q0 94 30 178.5t83 147.5t130.5 100t167.5 37q127 0 209 -73.5t82 -170.5q0 -37 -8 -53q-8 -15 -121 -15h-379q-39 0 -47 -8t-8 -47q0 -163 91 -273t249 -110q55 0 99 21.5t89 78.5q15 4 25 -3t12 -21q-47 -96 -138.5 -143.5t-182.5 -47.5q-175 0 -279 115.5 t-104 286.5zM233 596q0 -10 15 -10h145q186 0 213 20q12 8 12 39q0 51 -38 90t-119 39q-85 0 -155.5 -61t-72.5 -117zM365 952l176 334q26 49 49 49q24 0 61 -29.5t37 -54.5q0 -22 -33 -55l-256 -266q-11 -2 -22 5t-12 17z" />
<glyph unicode="&#xea;" horiz-adv-x="811" d="M72 373q0 94 30 178.5t83 147.5t130.5 100t167.5 37q127 0 209 -73.5t82 -170.5q0 -37 -8 -53q-8 -15 -121 -15h-379q-39 0 -47 -8t-8 -47q0 -163 91 -273t249 -110q55 0 99 21.5t89 78.5q15 4 25 -3t12 -21q-47 -96 -138.5 -143.5t-182.5 -47.5q-175 0 -279 115.5 t-104 286.5zM233 596q0 -10 15 -10h145q186 0 213 20q12 8 12 39q0 51 -38 90t-119 39q-85 0 -155.5 -61t-72.5 -117zM250 952l184 363q36 67 72 0l186 -363q-1 -9 -19 -15t-26 -3l-149 188q-19 23 -28 23t-28 -23l-151 -188q-9 -3 -24.5 3t-16.5 15z" />
<glyph unicode="&#xeb;" horiz-adv-x="811" d="M72 373q0 94 30 178.5t83 147.5t130.5 100t167.5 37q127 0 209 -73.5t82 -170.5q0 -37 -8 -53q-8 -15 -121 -15h-379q-39 0 -47 -8t-8 -47q0 -163 91 -273t249 -110q55 0 99 21.5t89 78.5q15 4 25 -3t12 -21q-47 -96 -138.5 -143.5t-182.5 -47.5q-175 0 -279 115.5 t-104 286.5zM201 1124q-2 42 26 71.5t70 29.5q41 0 69.5 -29t28.5 -66q0 -44 -27.5 -73t-70.5 -29q-42 0 -68.5 25.5t-27.5 70.5zM233 596q0 -10 15 -10h145q186 0 213 20q12 8 12 39q0 51 -38 90t-119 39q-85 0 -155.5 -61t-72.5 -117zM535 1126q0 40 29 69.5t71 29.5 q41 0 67.5 -28t26.5 -64q0 -45 -26 -75t-68 -30t-70.5 26.5t-29.5 71.5z" />
<glyph unicode="&#xec;" horiz-adv-x="526" d="M20 1268q0 20 39 51q45 29 70 29q26 0 47 -48l162 -329q0 -12 -16 -19.5t-27 -5.5l-240 260q-35 38 -35 62zM71.5 18q-1.5 19 8.5 27l43 6q55 7 66.5 35.5t11.5 142.5v359q0 62 -8 81t-48 46l-18 12q-6 6 -5.5 19.5t7.5 17.5q38 13 108 45.5t103 54.5q17 0 20 -12 q-8 -144 -8 -254v-369q0 -113 12 -142t66 -36l43 -6q10 -8 8.5 -27t-12.5 -24q-91 6 -193 6q-106 0 -192 -6q-11 5 -12.5 24z" />
<glyph unicode="&#xed;" horiz-adv-x="526" d="M71.5 18q-1.5 19 8.5 27l43 6q55 7 66.5 35.5t11.5 142.5v359q0 62 -8 81t-48 46l-18 12q-6 6 -5.5 19.5t7.5 17.5q38 13 108 45.5t103 54.5q17 0 20 -12q-8 -144 -8 -254v-369q0 -113 12 -142t66 -36l43 -6q10 -8 8.5 -27t-12.5 -24q-91 6 -193 6q-106 0 -192 -6 q-11 5 -12.5 24zM201 981l176 334q26 49 49 49t60.5 -30t37.5 -54q0 -23 -32 -55l-256 -267q-11 -2 -22.5 5.5t-12.5 17.5z" />
<glyph unicode="&#xee;" horiz-adv-x="526" d="M49 950l184 363q36 67 72 0l187 -363q-1 -8 -19.5 -14.5t-26.5 -3.5l-149 188q-19 23 -27.5 23t-27.5 -23l-152 -188q-9 -3 -24.5 3t-16.5 15zM71.5 18q-1.5 19 8.5 27l43 6q55 7 66.5 35.5t11.5 142.5v359q0 62 -8 81t-48 46l-18 12q-6 6 -5.5 19.5t7.5 17.5 q38 13 108 45.5t103 54.5q17 0 20 -12q-8 -144 -8 -254v-369q0 -113 12 -142t66 -36l43 -6q10 -8 8.5 -27t-12.5 -24q-91 6 -193 6q-106 0 -192 -6q-11 5 -12.5 24z" />
<glyph unicode="&#xef;" horiz-adv-x="526" d="M-12 1128q-2 45 27 76t73 31q43 0 72.5 -30t29.5 -68q0 -47 -29 -78t-73 -31q-43 0 -71 26.5t-29 73.5zM71.5 18q-1.5 19 8.5 27l43 6q55 7 66.5 35.5t11.5 142.5v359q0 62 -8 81t-48 46l-18 12q-6 6 -5.5 19.5t7.5 17.5q38 13 108 45.5t103 54.5q17 0 20 -12 q-8 -144 -8 -254v-369q0 -113 12 -142t66 -36l43 -6q10 -8 8.5 -27t-12.5 -24q-91 6 -193 6q-106 0 -192 -6q-11 5 -12.5 24zM342 1130q0 43 30 74t74 31q43 0 71 -29.5t28 -66.5q0 -48 -27.5 -79.5t-71.5 -31.5t-73.5 28t-30.5 74z" />
<glyph unicode="&#xf0;" horiz-adv-x="991" d="M72 389q0 121 61.5 224.5t165 163t221.5 59.5q122 0 199 -43q-16 81 -56 171t-96 160l-268 -139q-19 8 -27 26.5t-2 41.5l254 133q-80 90 -181.5 155.5t-205.5 75.5q-8 10 -6 25t12 22q129 -6 259.5 -67t228.5 -156l229 119q21 -4 31 -24t2 -42l-213 -110 q121 -128 180.5 -305t59.5 -357q0 -258 -115 -404.5t-326 -146.5q-177 0 -292 112.5t-115 305.5zM248 418q0 -69 15.5 -135t45.5 -123t80.5 -92t114.5 -35q68 0 118.5 33.5t78.5 91t41.5 123.5t13.5 141q0 180 -47 266q-46 86 -197 86q-116 0 -190 -99t-74 -257z" />
<glyph unicode="&#xf1;" horiz-adv-x="1075" d="M71.5 18q-1.5 19 8.5 27l43 6q55 7 66.5 35.5t11.5 142.5v359q0 62 -8 81t-48 46l-18 12q-6 6 -5.5 19.5t7.5 17.5q40 14 108.5 46t96.5 54q16 0 22 -14q-4 -47 -4 -96q0 -9 6.5 -16t16.5 -7q170 105 287 105q120 0 179.5 -71.5t59.5 -182.5v-353q0 -113 12 -142t66 -36 l45 -6q10 -8 8.5 -27t-12.5 -24q-92 6 -193 6q-107 0 -190 -6q-11 5 -12.5 24t8.5 27l39 6q24 4 37.5 10t22.5 14.5t12.5 32t4.5 47t1 74.5v306q0 93 -47 147.5t-146 54.5q-57 0 -104 -20.5t-70 -50.5q-19 -25 -25 -50.5t-6 -72.5v-314q0 -80 4.5 -111t19.5 -46t54 -21 l37 -6q10 -8 8.5 -27t-12.5 -24q-83 6 -187 6q-106 0 -192 -6q-11 5 -12.5 24zM309 971q6 30 30 87t46 79q44 47 113 47h110q65 0 93.5 13.5t64.5 66.5q9 5 20 1.5t15 -14.5q-9 -38 -32 -81t-46 -68q-23 -20 -44 -26.5t-56 -6.5h-109q-67 0 -103 -24t-67 -82q-7 -6 -19 -3.5 t-16 11.5z" />
<glyph unicode="&#xf2;" horiz-adv-x="995" d="M72 393q0 191 126 317t310 126q175 0 295.5 -119t120.5 -305q0 -193 -120.5 -317t-311.5 -124q-180 0 -300 116.5t-120 305.5zM248 420q0 -98 27.5 -183.5t89 -144.5t147.5 -59q64 0 112 31t74 83.5t38 110t12 121.5q0 55 -8.5 108.5t-29 106t-50 92t-75.5 64t-102 24.5 q-104 0 -169.5 -94.5t-65.5 -259.5zM252 1262q0 20 39 51q43 28 69 28q27 0 48 -47l161 -329q0 -12 -16 -19.5t-27 -5.5l-239 260q-35 38 -35 62z" />
<glyph unicode="&#xf3;" horiz-adv-x="995" d="M72 393q0 191 126 317t310 126q175 0 295.5 -119t120.5 -305q0 -193 -120.5 -317t-311.5 -124q-180 0 -300 116.5t-120 305.5zM248 420q0 -98 27.5 -183.5t89 -144.5t147.5 -59q64 0 112 31t74 83.5t38 110t12 121.5q0 55 -8.5 108.5t-29 106t-50 92t-75.5 64t-102 24.5 q-104 0 -169.5 -94.5t-65.5 -259.5zM414 961l176 333q26 49 49 49q24 0 61 -29t37 -54q0 -24 -32 -56l-256 -266q-11 -2 -22.5 5.5t-12.5 17.5z" />
<glyph unicode="&#xf4;" horiz-adv-x="995" d="M72 393q0 191 126 317t310 126q175 0 295.5 -119t120.5 -305q0 -193 -120.5 -317t-311.5 -124q-180 0 -300 116.5t-120 305.5zM248 420q0 -98 27.5 -183.5t89 -144.5t147.5 -59q64 0 112 31t74 83.5t38 110t12 121.5q0 55 -8.5 108.5t-29 106t-50 92t-75.5 64t-102 24.5 q-104 0 -169.5 -94.5t-65.5 -259.5zM270 950l185 363q35 66 71 0l187 -363q-1 -9 -19 -15t-26 -3l-150 188q-19 23 -27.5 23t-27.5 -23l-152 -188q-9 -3 -24.5 3t-16.5 15z" />
<glyph unicode="&#xf5;" horiz-adv-x="995" d="M72 393q0 191 126 317t310 126q175 0 295.5 -119t120.5 -305q0 -193 -120.5 -317t-311.5 -124q-180 0 -300 116.5t-120 305.5zM248 420q0 -98 27.5 -183.5t89 -144.5t147.5 -59q64 0 112 31t74 83.5t38 110t12 121.5q0 55 -8.5 108.5t-29 106t-50 92t-75.5 64t-102 24.5 q-104 0 -169.5 -94.5t-65.5 -259.5zM260 958q6 30 30 85.5t46 76.5q42 47 110 47h109q64 0 92 13.5t62 64.5q25 12 34 -12q-9 -37 -31.5 -80t-43.5 -66q-22 -19 -43.5 -25.5t-57.5 -6.5h-106q-65 0 -100 -24t-66 -81q-7 -6 -19 -3.5t-16 11.5z" />
<glyph unicode="&#xf6;" horiz-adv-x="995" d="M72 393q0 191 126 317t310 126q175 0 295.5 -119t120.5 -305q0 -193 -120.5 -317t-311.5 -124q-180 0 -300 116.5t-120 305.5zM207 1128q-2 45 27 76t73 31q43 0 73 -30t30 -68q0 -47 -29.5 -78t-73.5 -31q-43 0 -71 26.5t-29 73.5zM248 420q0 -98 27.5 -183.5t89 -144.5 t147.5 -59q64 0 112 31t74 83.5t38 110t12 121.5q0 55 -8.5 108.5t-29 106t-50 92t-75.5 64t-102 24.5q-104 0 -169.5 -94.5t-65.5 -259.5zM561 1130q0 43 30.5 74t74.5 31q42 0 70 -29.5t28 -66.5q0 -48 -27 -79.5t-71 -31.5t-74 28t-31 74z" />
<glyph unicode="&#xf7;" d="M119 371v100h788v-100h-788zM416 172q0 37 27 63.5t65 26.5q36 0 63 -27t27 -63q0 -38 -27 -65t-63 -27q-38 0 -65 27t-27 65zM416 672q0 37 27 63.5t65 26.5q36 0 63 -27t27 -63q0 -38 -27 -65t-63 -27q-38 0 -65 27t-27 65z" />
<glyph unicode="&#xf8;" horiz-adv-x="995" d="M72 393q0 191 126 317t310 126q112 0 205 -52l69 101q19 2 38 -10t20 -29l-70 -101q72 -57 113 -142.5t41 -190.5q0 -193 -120.5 -317t-311.5 -124q-126 0 -220 58l-75 -113q-20 -1 -35.5 12t-18.5 33l74 107q-145 116 -145 325zM242 420q0 -143 53 -240l358 518 q-70 76 -170 76q-108 0 -174.5 -94t-66.5 -260zM334 119q73 -86 178 -86q67 0 116 31t75.5 83.5t38.5 110t12 121.5q0 150 -58 260z" />
<glyph unicode="&#xf9;" horiz-adv-x="1048" d="M80.5 778q1.5 17 11.5 21q122 3 219 37q18 -3 21 -15q-6 -53 -6 -178v-342q0 -45 4.5 -79t17.5 -64.5t34 -50t54.5 -30.5t79.5 -11q42 0 87.5 16t78.5 45q41 38 41 119v336q0 34 -1 56t-6 39t-8 25.5t-15 17t-19 12t-27 11.5l-26 11q-11 6 -10.5 22.5t12.5 22.5 q65 2 136 12.5t103 24.5q16 -3 19 -15q-7 -68 -7 -178v-344q0 -130 11.5 -176.5t52.5 -46.5q32 0 80 10q10 -8 10 -30.5t-12 -28.5l-27.5 -5.5t-31 -6t-30.5 -6.5t-33.5 -7.5t-31 -7.5t-32.5 -9.5t-29 -10t-29 -11.5t-24 -12q-18 0 -25 14v84q0 29 -18 29q-50 -32 -77 -48 t-89 -37.5t-117 -21.5q-131 0 -189.5 64t-58.5 192v342q0 101 -8.5 127.5t-52.5 46.5l-25 11q-9 7 -7.5 24zM248 1268q0 20 39 51q45 29 69 29q26 0 47 -48l162 -329q0 -12 -16 -19.5t-27 -5.5l-239 260q-35 38 -35 62z" />
<glyph unicode="&#xfa;" horiz-adv-x="1048" d="M80.5 778q1.5 17 11.5 21q122 3 219 37q18 -3 21 -15q-6 -53 -6 -178v-342q0 -45 4.5 -79t17.5 -64.5t34 -50t54.5 -30.5t79.5 -11q42 0 87.5 16t78.5 45q41 38 41 119v336q0 34 -1 56t-6 39t-8 25.5t-15 17t-19 12t-27 11.5l-26 11q-11 6 -10.5 22.5t12.5 22.5 q65 2 136 12.5t103 24.5q16 -3 19 -15q-7 -68 -7 -178v-344q0 -130 11.5 -176.5t52.5 -46.5q32 0 80 10q10 -8 10 -30.5t-12 -28.5l-27.5 -5.5t-31 -6t-30.5 -6.5t-33.5 -7.5t-31 -7.5t-32.5 -9.5t-29 -10t-29 -11.5t-24 -12q-18 0 -25 14v84q0 29 -18 29q-50 -32 -77 -48 t-89 -37.5t-117 -21.5q-131 0 -189.5 64t-58.5 192v342q0 101 -8.5 127.5t-52.5 46.5l-25 11q-9 7 -7.5 24zM436 977l176 334q26 49 50 49q23 0 60.5 -30t37.5 -54q0 -22 -33 -55l-256 -267q-11 -2 -22.5 5.5t-12.5 17.5z" />
<glyph unicode="&#xfb;" horiz-adv-x="1048" d="M80.5 778q1.5 17 11.5 21q122 3 219 37q18 -3 21 -15q-6 -53 -6 -178v-342q0 -45 4.5 -79t17.5 -64.5t34 -50t54.5 -30.5t79.5 -11q42 0 87.5 16t78.5 45q41 38 41 119v336q0 34 -1 56t-6 39t-8 25.5t-15 17t-19 12t-27 11.5l-26 11q-11 6 -10.5 22.5t12.5 22.5 q65 2 136 12.5t103 24.5q16 -3 19 -15q-7 -68 -7 -178v-344q0 -130 11.5 -176.5t52.5 -46.5q32 0 80 10q10 -8 10 -30.5t-12 -28.5l-27.5 -5.5t-31 -6t-30.5 -6.5t-33.5 -7.5t-31 -7.5t-32.5 -9.5t-29 -10t-29 -11.5t-24 -12q-18 0 -25 14v84q0 29 -18 29q-50 -32 -77 -48 t-89 -37.5t-117 -21.5q-131 0 -189.5 64t-58.5 192v342q0 101 -8.5 127.5t-52.5 46.5l-25 11q-9 7 -7.5 24zM287 971l184 362q36 67 72 0l186 -362q-1 -9 -19 -15.5t-26 -3.5l-149 189q-19 23 -28 23t-28 -23l-151 -189q-9 -3 -24.5 3.5t-16.5 15.5z" />
<glyph unicode="&#xfc;" horiz-adv-x="1048" d="M80.5 778q1.5 17 11.5 21q122 3 219 37q18 -3 21 -15q-6 -53 -6 -178v-342q0 -45 4.5 -79t17.5 -64.5t34 -50t54.5 -30.5t79.5 -11q42 0 87.5 16t78.5 45q41 38 41 119v336q0 34 -1 56t-6 39t-8 25.5t-15 17t-19 12t-27 11.5l-26 11q-11 6 -10.5 22.5t12.5 22.5 q65 2 136 12.5t103 24.5q16 -3 19 -15q-7 -68 -7 -178v-344q0 -130 11.5 -176.5t52.5 -46.5q32 0 80 10q10 -8 10 -30.5t-12 -28.5l-27.5 -5.5t-31 -6t-30.5 -6.5t-33.5 -7.5t-31 -7.5t-32.5 -9.5t-29 -10t-29 -11.5t-24 -12q-18 0 -25 14v84q0 29 -18 29q-50 -32 -77 -48 t-89 -37.5t-117 -21.5q-131 0 -189.5 64t-58.5 192v342q0 101 -8.5 127.5t-52.5 46.5l-25 11q-9 7 -7.5 24zM229 1128q-2 44 27.5 75.5t73.5 31.5q43 0 72.5 -30t29.5 -68q0 -47 -29 -78t-73 -31t-72 27t-29 73zM584 1130q0 43 30 74t74 31q42 0 70 -29.5t28 -66.5 q0 -48 -27 -79.5t-71 -31.5t-73.5 28t-30.5 74z" />
<glyph unicode="&#xfd;" horiz-adv-x="897" d="M2.5 789q1.5 20 13.5 24q99 -6 195 -6q79 0 178 6q12 -4 13.5 -24t-9.5 -27l-51 -10q-45 -9 -45 -27q0 -21 59 -193l66 -188q51 -141 59 -145q13 9 76 151l70 162q71 167 71 205q0 27 -49 35l-63 10q-11 7 -9.5 27t13.5 24q99 -6 180 -6q70 0 156 6q12 -6 13.5 -24 t-9.5 -27l-35 -6q-48 -9 -82.5 -54.5t-91.5 -162.5l-115 -236q-150 -302 -336 -717q-43 -96 -131 -96q-43 0 -66.5 24.5t-23.5 63.5q0 40 23 61t59 21h39q45 0 68 37q81 126 118 227q21 56 21 88q0 29 -6.5 55t-28.5 87l-160 438q-34 93 -50 116q-25 35 -71 44l-51 10 q-9 7 -7.5 27zM434 961l176 333q26 49 49 49q24 0 61.5 -29t37.5 -54q0 -23 -33 -56l-256 -266q-11 -2 -22.5 5.5t-12.5 17.5z" />
<glyph unicode="&#xfe;" horiz-adv-x="1021" d="M28.5 -504q-1.5 19 8.5 27l43 6q55 7 66.5 35.5t11.5 142.5v1407q0 92 -9.5 117.5t-54.5 52.5l-20 12q-8 4 -8 20t8 21q12 5 57 19.5t88 31.5t78 35q14 0 20 -12q-8 -144 -8 -254v-391q0 -11 4.5 -19t10.5 -8q2 1 37 19.5t67.5 34t84.5 29.5t97 14q152 0 246 -107 t94 -262q0 -217 -139 -356.5t-354 -139.5q-79 0 -119 9q-29 -6 -29 -58v-215q0 -112 11.5 -139.5t66.5 -34.5l80 -10q10 -8 8.5 -27t-12.5 -24q-147 6 -230 6q-106 0 -192 -6q-11 5 -12.5 24zM309 207q0 -43 14.5 -67.5t49.5 -51.5q61 -49 153 -49q117 0 187.5 100.5 t70.5 253.5q0 143 -72.5 243.5t-203.5 100.5q-60 0 -107 -17.5t-67 -39.5q-25 -32 -25 -121v-352z" />
<glyph unicode="&#xff;" horiz-adv-x="897" d="M2.5 789q1.5 20 13.5 24q99 -6 195 -6q79 0 178 6q12 -4 13.5 -24t-9.5 -27l-51 -10q-45 -9 -45 -27q0 -21 59 -193l66 -188q51 -141 59 -145q13 9 76 151l70 162q71 167 71 205q0 27 -49 35l-63 10q-11 7 -9.5 27t13.5 24q99 -6 180 -6q70 0 156 6q12 -6 13.5 -24 t-9.5 -27l-35 -6q-48 -9 -82.5 -54.5t-91.5 -162.5l-115 -236q-150 -302 -336 -717q-43 -96 -131 -96q-43 0 -66.5 24.5t-23.5 63.5q0 40 23 61t59 21h39q45 0 68 37q81 126 118 227q21 56 21 88q0 29 -6.5 55t-28.5 87l-160 438q-34 93 -50 116q-25 35 -71 44l-51 10 q-9 7 -7.5 27zM213 1128q-2 45 27 76t73 31q43 0 73 -30t30 -68q0 -47 -29.5 -78t-73.5 -31q-43 0 -71 26.5t-29 73.5zM567 1130q0 43 30.5 74t74.5 31q42 0 70 -29.5t28 -66.5q0 -48 -27 -79.5t-71 -31.5t-74 28t-31 74z" />
<glyph unicode="&#x152;" horiz-adv-x="2072" d="M94 666q0 199 99.5 356.5t284 246.5t423.5 89q62 0 184.5 -3t182.5 -3h346q249 0 276 6q9 -33 31 -271q-6 -11 -24 -13t-27 7q-2 5 -5 15q-11 34 -17 51.5t-19 43t-27 39.5t-36.5 27.5t-51.5 20.5q-43 10 -198 10h-148q-44 0 -51.5 -11t-7.5 -71v-411q0 -40 10 -48t55 -8 h119q128 0 174 11q13 4 21 10.5t15 21.5t13 41l19 82q7 9 26 8.5t25 -10.5q0 -20 -4 -91.5t-4 -113.5t4 -110t4 -88q-6 -10 -25 -10.5t-26 8.5l-21 82q-3 15 -8.5 26.5t-11 20t-15.5 15t-17.5 11t-23.5 7.5t-26 4.5t-32 2.5t-35 1h-41h-11h-119q-45 0 -55 -8.5t-10 -47.5 v-288q0 -91 8 -139.5t31 -73.5q21 -23 72 -35.5t175 -12.5q120 0 173.5 6t86.5 25q63 32 146 199q10 8 27.5 3.5t23.5 -17.5q-10 -55 -40.5 -149t-51.5 -136q-276 6 -549 6h-125q-74 0 -206 -6t-197 -6q-357 0 -573 186t-216 492zM299 674q0 -50 6.5 -101.5t24.5 -114 t46 -118.5t75.5 -110t108.5 -93t148.5 -62.5t192.5 -23.5q107 0 178 31q25 14 38.5 36t18.5 52.5t5 81.5v870q0 71 -13.5 104.5t-40.5 43.5q-73 24 -196 24q-128 0 -230 -33t-169 -89.5t-111 -136.5t-63 -169t-19 -192z" />
<glyph unicode="&#x153;" horiz-adv-x="1492" d="M72 393q0 192 125 317.5t311 125.5q99 0 184.5 -45.5t136.5 -131.5q53 82 141.5 129.5t182.5 47.5q138 0 220.5 -73t82.5 -171q0 -35 -6 -47q-10 -21 -166 -21h-338q-36 0 -45.5 -15t-9.5 -63q0 -70 22 -134.5t63 -116t106.5 -82.5t144.5 -31q71 0 111 21t83 79 q12 4 24.5 -2.5t12.5 -17.5q-43 -99 -128 -145t-191 -46q-99 0 -184.5 45.5t-133.5 122.5q-54 -82 -142.5 -125t-189.5 -43q-182 0 -299.5 116t-117.5 306zM248 418q0 -92 28 -178t89.5 -146.5t142.5 -60.5q66 0 114.5 31.5t75 84t38.5 110t12 120.5q0 69 -14.5 135 t-44.5 126t-84 97t-124 37q-102 0 -167.5 -99.5t-65.5 -256.5zM920 602q0 -16 57 -16h129q164 0 182 18q12 12 12 41q0 48 -38.5 88.5t-118.5 40.5q-84 0 -153.5 -55t-69.5 -117z" />
<glyph unicode="&#x178;" horiz-adv-x="1175" d="M-13.5 1334.5q1.5 17.5 11.5 23.5q99 -6 238 -6q142 0 219 6q13 -4 14.5 -23t-8.5 -28l-27 -4q-51 -7 -68.5 -15.5t-17.5 -21.5t25 -72t39 -86q19 -38 70 -142.5t88 -177t73 -135.5q138 239 193 346q133 247 133 271q0 9 -25 19t-61 14l-37 4q-11 10 -9.5 27.5t13.5 23.5 q111 -6 197 -6q85 0 190 6q12 -7 13.5 -24.5t-9.5 -26.5l-57 -11q-17 -3 -33 -9.5t-32.5 -19t-29 -23t-29 -33t-27 -36.5t-29 -45t-28 -46.5t-31.5 -54t-32 -56.5l-129 -223q-68 -118 -82 -166t-14 -166v-107q0 -71 2.5 -111t8.5 -72t21 -46t35.5 -21t55.5 -10l78 -6 q9 -9 7 -27.5t-11 -23.5q-191 6 -279 6q-104 0 -268 -6q-9 5 -11 23.5t7 27.5l63 6q24 2 39.5 5t29.5 10.5t22 14t15 23.5t9.5 31.5t4.5 45t2.5 56.5t0.5 74v105q0 85 -10.5 126.5t-54.5 127.5l-242 471q-49 94 -79.5 120.5t-82.5 34.5l-57 11q-9 10 -7.5 27.5zM348 1559 q-5 45 25 79.5t76 34.5q45 0 74.5 -34t29.5 -76q0 -46 -29 -77.5t-75 -31.5q-48 0 -74.5 26.5t-26.5 78.5zM723 1559q0 46 30 80t76 34q45 0 72 -33.5t27 -76.5q0 -46 -26.5 -77.5t-72.5 -31.5q-47 0 -76 27t-30 78z" />
<glyph unicode="&#x2c6;" horiz-adv-x="737" d="M147 971l185 362q36 66 71 0l187 -362q-1 -9 -19 -15.5t-26 -3.5l-150 189q-19 23 -27.5 23t-27.5 -23l-152 -189q-9 -3 -24.5 3.5t-16.5 15.5z" />
<glyph unicode="&#x2dc;" horiz-adv-x="737" d="M123 981q6 30 30 87t46 79q44 47 112 47h111q65 0 93.5 13.5t64.5 66.5q25 12 34 -12q-9 -39 -31.5 -82.5t-45.5 -67.5q-22 -20 -44 -26.5t-57 -6.5h-108q-67 0 -103 -24t-67 -82q-7 -6 -19 -3.5t-16 11.5z" />
<glyph unicode="&#x2000;" horiz-adv-x="889" />
<glyph unicode="&#x2001;" horiz-adv-x="1778" />
<glyph unicode="&#x2002;" horiz-adv-x="889" />
<glyph unicode="&#x2003;" horiz-adv-x="1778" />
<glyph unicode="&#x2004;" horiz-adv-x="592" />
<glyph unicode="&#x2005;" horiz-adv-x="444" />
<glyph unicode="&#x2006;" horiz-adv-x="296" />
<glyph unicode="&#x2007;" horiz-adv-x="296" />
<glyph unicode="&#x2008;" horiz-adv-x="222" />
<glyph unicode="&#x2009;" horiz-adv-x="355" />
<glyph unicode="&#x200a;" horiz-adv-x="98" />
<glyph unicode="&#x2010;" horiz-adv-x="655" d="M66 410q0 32 16 51l477 45q31 -19 31 -66q0 -31 -17 -51l-477 -45q-30 23 -30 66z" />
<glyph unicode="&#x2011;" horiz-adv-x="655" d="M66 410q0 32 16 51l477 45q31 -19 31 -66q0 -31 -17 -51l-477 -45q-30 23 -30 66z" />
<glyph unicode="&#x2012;" horiz-adv-x="655" d="M66 410q0 32 16 51l477 45q31 -19 31 -66q0 -31 -17 -51l-477 -45q-30 23 -30 66z" />
<glyph unicode="&#x2013;" d="M0 371v100h1024v-100h-1024z" />
<glyph unicode="&#x2014;" horiz-adv-x="2048" d="M0 371v100h2048v-100h-2048z" />
<glyph unicode="&#x2018;" horiz-adv-x="481" d="M113 1165q0 101 68 174.5t171 104.5q12 -6 17 -19t-2 -24q-156 -72 -156 -176q0 -53 33 -83t69 -32q24 -2 40 -16t16 -41q0 -31 -23 -57.5t-76 -26.5q-63 0 -110 58.5t-47 137.5z" />
<glyph unicode="&#x2019;" horiz-adv-x="481" d="M112.5 977q-4.5 13 2.5 24q155 71 155 177q0 53 -33 82.5t-69 31.5q-24 2 -39.5 16.5t-15.5 41.5q0 31 22.5 57.5t75.5 26.5q63 0 110.5 -59t47.5 -138q0 -101 -68.5 -174.5t-171.5 -104.5q-12 6 -16.5 19z" />
<glyph unicode="&#x201a;" horiz-adv-x="440" d="M92 121q0 31 22.5 57.5t75.5 26.5q63 0 110.5 -59t47.5 -138q-1 -101 -68.5 -174t-170.5 -104q-12 6 -17 19t2 24q156 72 156 176q0 53 -33.5 82.5t-69.5 31.5q-24 2 -39.5 16.5t-15.5 41.5z" />
<glyph unicode="&#x201c;" horiz-adv-x="827" d="M113 1165q0 101 68 174.5t171 104.5q12 -6 17 -19t-2 -24q-156 -72 -156 -176q0 -53 33 -83t69 -32q24 -2 40 -16t16 -41q0 -31 -23 -57.5t-76 -26.5q-63 0 -110 58.5t-47 137.5zM459 1165q0 101 68 174.5t171 104.5q12 -6 17 -19t-2 -24q-156 -72 -156 -176 q0 -53 33 -83t69 -32q24 -2 40 -16t16 -41q0 -31 -23 -57.5t-76 -26.5q-63 0 -110 58.5t-47 137.5z" />
<glyph unicode="&#x201d;" horiz-adv-x="827" d="M112.5 977q-4.5 13 2.5 24q155 71 155 177q0 53 -33 82.5t-69 31.5q-24 2 -39.5 16.5t-15.5 41.5q0 31 22.5 57.5t75.5 26.5q63 0 110.5 -59t47.5 -138q0 -101 -68.5 -174.5t-171.5 -104.5q-12 6 -16.5 19zM458.5 977q-4.5 13 2.5 24q155 71 155 177q0 53 -33 82.5 t-69 31.5q-24 2 -39.5 16.5t-15.5 41.5q0 31 22.5 57.5t75.5 26.5q63 0 110.5 -59t47.5 -138q0 -101 -68.5 -174.5t-171.5 -104.5q-12 6 -16.5 19z" />
<glyph unicode="&#x201e;" horiz-adv-x="786" d="M92 121q0 31 22.5 57.5t75.5 26.5q63 0 110.5 -59t47.5 -138q-1 -101 -68.5 -174t-170.5 -104q-12 6 -17 19t2 24q156 72 156 176q0 53 -33.5 82.5t-69.5 31.5q-24 2 -39.5 16.5t-15.5 41.5zM438 121q0 31 23 57.5t76 26.5q63 0 110 -59t47 -138q-1 -101 -68.5 -174 t-170.5 -104q-12 6 -17 19t2 24q156 72 156 176q0 53 -33 82.5t-69 31.5q-24 2 -40 16.5t-16 41.5z" />
<glyph unicode="&#x2022;" horiz-adv-x="794" d="M113 688q0 120 82.5 202.5t201.5 82.5t202 -82.5t83 -202.5q0 -119 -83 -200.5t-202 -81.5t-201.5 81.5t-82.5 200.5z" />
<glyph unicode="&#x2026;" horiz-adv-x="2048" d="M227 84q0 52 32.5 86.5t82.5 34.5q51 0 83 -35t32 -86q0 -50 -31.5 -81.5t-83.5 -31.5q-46 0 -80.5 31.5t-34.5 81.5zM909 84q0 52 32.5 86.5t82.5 34.5q51 0 83 -35t32 -86q0 -50 -31.5 -81.5t-83.5 -31.5q-46 0 -80.5 31.5t-34.5 81.5zM1591 84q0 52 32.5 86.5 t82.5 34.5q51 0 83 -35t32 -86q0 -50 -31.5 -81.5t-83.5 -31.5q-46 0 -80.5 31.5t-34.5 81.5z" />
<glyph unicode="&#x202f;" horiz-adv-x="355" />
<glyph unicode="&#x2039;" horiz-adv-x="477" d="M106 389q-26 34 0 64q46 55 244 307q26 -4 35 -27l-143 -287q-11 -24 0 -49l143 -291q-9 -20 -35 -26q-23 29 -74.5 96t-91 117t-78.5 96z" />
<glyph unicode="&#x203a;" horiz-adv-x="477" d="M92 106l144 291q11 25 0 49l-144 287q9 23 35 27q198 -252 244 -307q26 -30 0 -64q-39 -46 -78.5 -96t-91 -117t-74.5 -96q-26 6 -35 26z" />
<glyph unicode="&#x205f;" horiz-adv-x="444" />
<glyph unicode="&#x20ac;" d="M26.5 557q8.5 23 20.5 33h105q-4 41 2 117h-101q-10 8 -0.5 31t21.5 34h84q39 240 180 389.5t344 149.5q75 0 195 -45q25 -8 43 -11q0 -107 16 -241q-6 -12 -20 -13.5t-23 9.5q-13 53 -27.5 89.5t-41 75t-69.5 58.5t-102 20q-123 0 -210.5 -120.5t-106.5 -360.5h524 q5 -8 0.5 -32.5t-20.5 -32.5h-508q-6 -54 -2 -117h489q11 -9 4.5 -33t-24.5 -33h-463q15 -245 100.5 -368t225.5 -123q97 0 160 67t106 185q7 8 21 4.5t18 -13.5q-9 -60 -29.5 -132.5t-38.5 -110.5q-155 -62 -250 -62q-221 0 -345 145t-148 408h-129q-9 10 -0.5 33z" />
<glyph unicode="&#x2122;" horiz-adv-x="1126" d="M61 1251q8 44 25 123h18q12 -15 21 -18.5t37 -3.5h235q17 0 23 0.5t15 5.5t20 16h16q-14 -58 -10 -129q-3 -4 -10.5 -4.5t-10.5 2.5q-5 26 -9.5 38t-20.5 21t-45 9h-43q-10 0 -12.5 -4t-2.5 -19v-207q0 -45 5.5 -60.5t27.5 -21.5l31 -4q4 -5 3.5 -14.5t-5.5 -11.5 q-41 2 -99 2q-73 0 -106 -2q-14 7 -2 26l28 4q22 3 28.5 23t6.5 65v201q0 11 -1 15t-5 6t-14 2h-35q-71 0 -88 -66q-5 -2 -12.5 0t-8.5 6zM505.5 980.5q-0.5 8.5 2.5 14.5q18 4 28 7.5t19 13t10 24.5q17 170 17 244q0 21 -15 30t-45 13q-3 5 -2 15t4 12q20 -2 64 -2 q55 0 86 2q0 -18 45 -105l51 -96q31 -55 35 -57q7 7 35 57l49 88q33 59 47 113q31 -2 61 -2q51 0 74 2q9 -1 9.5 -12.5t-7.5 -14.5q-31 -3 -42 -12t-11 -35q0 -128 6 -223q1 -31 6 -41t19 -15l28 -6q5 -3 5 -13t-5 -13q-27 2 -94 2q-57 0 -84 -2q-5 3 -5.5 13t5.5 13 q35 11 41 19q8 10 8 45l-4 182q0 19 -2 21q-3 0 -35 -62l-51 -100q-2 -4 -16 -32.5t-27.5 -57.5t-17.5 -41q-7 -3 -14.5 -3.5t-8.5 1.5q-9 25 -53 116l-51 103q-38 84 -43 86q-9 -18 -9 -221q0 -19 2.5 -29.5t11 -16t16 -7t26.5 -3.5q7 -11 0 -26q-18 2 -88 2q-45 0 -76 -2 q-4 3 -4.5 11.5z" />
<glyph unicode="&#xe000;" horiz-adv-x="808" d="M0 0v809h809v-809h-809z" />
</font>
</defs>
</svg>
